<?xml version="1.0" encoding="UTF-8"?>
<!-- Created with Inkscape (http://www.inkscape.org/) -->
<svg width="512" height="512" version="1.1" viewBox="0 0 135.47 135.47" xml:space="preserve" xmlns="http://www.w3.org/2000/svg"><g transform="translate(365.51 -53.149)"><g transform="matrix(.4528 0 0 .4528 -191.81 54.603)" stroke-width=".81589"><path d="m-151.28 239.5c-0.77638-0.10032-1.9789-0.33585-2.6724-0.52338-0.69341-0.18754-1.9718-0.67403-2.8408-1.0811-1.0707-0.50154-2.088-1.2175-3.1558-2.221-0.99224-0.93244-1.8776-2.0218-2.3907-2.9417-0.44819-0.8035-1.0232-2.1602-1.2778-3.0149-0.31923-1.0717-0.4629-2.1718-0.4629-3.5446 0-1.0948 0.15194-2.549 0.33765-3.2315s0.71217-1.9437 1.1699-2.8026c0.62214-1.1674 1.3138-2.0103 2.7397-3.3388 1.4455-1.3468 2.314-1.9625 3.586-2.5422 1.1263-0.51331 2.3781-0.87853 3.8048-1.11 1.5344-0.24898 2.7803-0.31105 4.4762-0.22301 1.2925 0.0671 2.8668 0.25403 3.4985 0.4154 0.63169 0.16135 1.7429 0.58811 2.4694 0.94834 0.72647 0.36023 1.9377 1.125 2.6917 1.6994 0.75396 0.57444 1.4296 1.1869 1.5014 1.361 0.086 0.20856-0.30785 0.68995-1.1545 1.411-0.70679 0.60192-1.6851 1.4299-2.174 1.84l-0.88897 0.7456-1.182-1.005c-0.70678-0.60094-1.6992-1.1859-2.4682-1.4548-0.70738-0.24735-1.7897-0.4981-2.4052-0.55722-0.61548-0.0591-1.688-9e-3 -2.3833 0.11174-0.69535 0.12059-1.7528 0.43276-2.35 0.69372s-1.5218 0.87994-2.0548 1.3755-1.238 1.4348-1.5667 2.0871c-0.53434 1.0605-0.59762 1.4291-0.59762 3.4808 0 2.1682 0.0401 2.3706 0.72737 3.6693 0.42181 0.79711 1.1575 1.7434 1.7513 2.2526 0.56314 0.48293 1.5955 1.1258 2.2941 1.4287 1.0754 0.46623 1.579 0.551 3.2844 0.5529 1.7945 2e-3 2.173-0.0683 3.4691-0.64435 0.80012-0.35562 1.9345-1.0435 2.5208-1.5286l1.066-0.88201 1.9812 1.6827c1.0897 0.92549 2.0988 1.8145 2.2424 1.9755 0.21064 0.23612 0.0128 0.49875-1.0228 1.3574-0.70617 0.58555-2.1446 1.4777-3.1965 1.9825-1.0519 0.5048-2.5168 1.0618-3.2554 1.2377-0.73857 0.17593-2.0982 0.365-3.0214 0.42016-0.92322 0.0552-2.3138 0.0182-3.0902-0.0821zm-197.67-13.323v-12.909l7.3298 4e-3c5.4524 2e-3 7.7123 0.079 8.8234 0.29812 0.8215 0.16198 2.077 0.55856 2.7899 0.88129 0.71296 0.32274 1.8589 1.1021 2.5465 1.732s1.4732 1.5922 1.7456 2.1386c0.27245 0.5464 0.60736 1.4792 0.74423 2.0729 0.13686 0.59371 0.19693 1.88 0.13349 2.8585-0.0701 1.0821-0.30521 2.2442-0.59997 2.9662-0.26654 0.65294-0.93218 1.6503-1.4792 2.2163-0.54699 0.56601-1.497 1.3291-2.1111 1.6957-0.6141 0.3666-1.8481 0.90852-2.7422 1.2042-1.4868 0.49175-2.0034 0.54551-6.0459 0.62909l-4.4202 0.0914v7.0307h-6.7143zm14.597 0.0778c0.60187-0.17964 1.2964-0.58057 1.614-0.93174 0.30665-0.33903 0.66156-0.96487 0.7887-1.3908 0.12713-0.42589 0.23115-1.0086 0.23115-1.2949 0-0.28629-0.10564-0.87446-0.23477-1.307-0.12912-0.43257-0.5409-1.1109-0.91505-1.5073-0.45075-0.4776-1.0645-0.82696-1.8189-1.0354-0.78419-0.21665-2.1362-0.31457-4.3432-0.31457h-3.2046v4.0457c0 4.0265 3e-3 4.0462 0.50357 4.1479 0.27697 0.0562 1.8129 0.0574 3.4131 3e-3 1.6862-0.0576 3.3538-0.23198 3.966-0.41472zm13.603-0.0778v-12.909h6.9381v9.7861h11.854l0.0601-4.841 0.0601-4.841 6.8262-0.1148v25.83h-6.7143l-0.0193-4.4246c-0.0106-2.4335-0.0358-4.7525-0.0559-5.1533l-0.0367-0.72875-11.974-0.111v10.418h-6.9381zm28.052 12.649c0.0681-0.14315 2.1493-4.5235 4.6251-9.734s5.1616-10.903 5.9687-12.649l1.4673-3.1753h3.6673c2.4143 0 3.6673 0.0748 3.6673 0.21883 0 0.12036 0.41462 1.1276 0.92138 2.2383 0.50675 1.1107 2.1604 4.5493 3.6748 7.6413s3.8677 7.8705 5.2297 10.619l2.4763 4.9972-3.6162 0.0574c-1.989 0.0316-3.6898-0.0153-3.7796-0.10411-0.0898-0.0888-0.63646-1.2049-1.2148-2.4801-1.0294-2.2699-1.0687-2.3213-1.8679-2.4442-0.44903-0.0691-3.0447-0.12664-5.7682-0.1279-2.7235-2e-3 -5.2528 0.0537-5.6207 0.12216-0.61653 0.11472-0.75176 0.31849-1.7274 2.6027l-1.0585 2.4782h-3.5841c-2.7841 0-3.5565-0.0581-3.4604-0.26027zm19.573-9.9223c-0.0358-0.0741-0.92111-2.1225-1.9674-4.5518-1.0463-2.4293-1.9527-4.4179-2.0143-4.4191-0.0616-7.9e-4 -0.95871 1.8952-1.9937 4.2141-1.035 2.3189-1.923 4.3625-1.9734 4.5413-0.0804 0.28545 0.40232 0.3266 3.9611 0.33766 2.229 7e-3 4.0234-0.0481 3.9877-0.12225zm14.371-2.7267v-12.909l7.2179 4e-3c5.4352 2e-3 7.5957 0.0781 8.7476 0.30514 0.84134 0.16584 2.0719 0.53244 2.7345 0.81468s1.7253 0.96476 2.3614 1.5167c0.6361 0.55197 1.3792 1.3315 1.6514 1.7323 0.27215 0.40082 0.61851 1.0793 0.7697 1.5078 0.1512 0.42847 0.36317 1.36 0.47105 2.07 0.11574 0.76175 0.11093 1.9162-0.0118 2.8163-0.12123 0.88959-0.45901 2.0024-0.81044 2.6701-0.3314 0.62966-1.1142 1.5884-1.7395 2.1306-0.62534 0.54218-1.4711 1.22-1.8795 1.5063l-0.74258 0.52054 0.86171 1.1452c0.47394 0.62985 1.8462 2.4804 3.0494 4.1122l2.1877 2.9671-7.5233-0.018-2.3087-3.1952c-1.2698-1.7574-2.539-3.3964-2.8205-3.6424-0.46899-0.40989-0.71558-0.4423-2.9508-0.38785l-2.4391 0.0594-0.1224 7.1834h-6.7037zm14.907-0.0157c0.60209-0.27769 1.3164-0.81627 1.5873-1.1968 0.27095-0.38057 0.55829-1.0992 0.63852-1.5969 0.0802-0.49774 0.0759-1.2906-0.01-1.7618-0.0856-0.47125-0.41061-1.1388-0.72229-1.4834s-0.98206-0.83218-1.4897-1.0835c-0.81874-0.40533-1.334-0.46514-4.56-0.52932l-3.6369-0.0723v8.4193l3.549-0.0952c3.1883-0.0855 3.6603-0.14648 4.6437-0.60004zm13.741 0.0157v-12.909h5.7203l2.593 4.0081c1.4262 2.2045 3.7096 5.7233 5.0742 7.8196l2.4812 3.8114 0.4409-0.80402c0.2425-0.44221 1.6877-2.7664 3.2116-5.1648 1.5239-2.3984 3.5168-5.5554 4.4286-7.0156l1.6579-2.6547h5.6563l0.16111 12.699c0.0886 6.9845 0.0983 12.794 0.0215 12.909-0.0832 0.12521-1.4003 0.21023-3.2569 0.21023h-3.1173l-0.0588-7.3303-0.0588-7.3303-3.0432 4.8837c-1.6738 2.6861-3.3681 5.4225-3.7652 6.081l-0.72204 1.1972h-3.3272l-0.98563-1.4305c-0.5421-0.7868-2.2788-3.4292-3.8593-5.8719l-2.8736-4.4414-0.1178 14.242h-6.2608zm33.795 12.797c0-0.0619 0.19793-0.47335 0.43985-0.9145 0.24192-0.44116 2.8497-5.8484 5.795-12.016 2.9453-6.1677 5.5119-11.565 5.7035-11.995l0.34833-0.7808 7.0729 0.014 1.0976 2.4398c0.6037 1.3419 3.3581 7.031 6.121 12.642 2.7628 5.6114 5.0745 10.32 5.1371 10.463 0.0882 0.20196-0.71294 0.26027-3.5767 0.26027h-3.6904l-2.2576-4.893-1.4155-0.13183c-0.77852-0.0725-3.3291-0.14174-5.6679-0.15387-2.3388-0.0121-4.6168 0.034-5.0622 0.10257-0.79996 0.12309-0.82269 0.15474-1.8672 2.6004l-1.0574 2.4758h-3.5602c-1.9581 0-3.5602-0.0506-3.5602-0.11241zm19.919-9.9929c0-0.0611-0.23842-0.55298-0.52981-1.0931-0.2914-0.54015-1.2142-2.5596-2.0506-4.4875-0.92967-2.1429-1.5837-3.3974-1.6827-3.2273-0.089 0.15297-1.0295 2.1691-2.0899 4.4802-1.0604 2.3112-1.928 4.2554-1.928 4.3205 0 0.0651 1.8632 0.11837 4.1405 0.11837 2.2773 0 4.1405-0.05 4.1405-0.11103zm49.462 5.6014v-4.504l-1.1623-1.8986c-0.63925-1.0442-2.9209-4.6158-5.0704-7.9369-2.1495-3.321-4.0552-6.249-4.2349-6.5067l-0.32677-0.46848h7.5877l3.429 5.4249c2.3554 3.7263 3.4888 5.3399 3.6199 5.1533 0.10499-0.14937 1.7122-2.5906 3.5715-5.4249l3.3806-5.1533h3.3314c2.2015 0 3.3314 0.075 3.3314 0.22114 0 0.12163-0.87145 1.5505-1.9366 3.1753-1.0651 1.6248-3.4319 5.2782-5.2595 8.1188l-3.323 5.1646v9.1389h-6.9381zm-20.591-35.596c-0.55394-0.0416-2.0647-0.18297-3.3572-0.31409-1.2925-0.13111-3.5082-0.50123-4.9238-0.82248s-3.3292-0.83705-4.2524-1.1462c-0.92322-0.30917-2.7361-1.0556-4.0286-1.6588-1.2925-0.60318-3.2564-1.6532-4.3643-2.3334-1.1079-0.68021-2.7948-1.8156-3.7488-2.5231-0.95399-0.70747-1.7345-1.3202-1.7345-1.3617 0-0.0415 0.16099-0.48542 0.35776-0.98652 0.19676-0.5011 1.0971-2.8787 2.0007-5.2836 0.90363-2.4049 2.0119-5.2626 2.4628-6.3506s0.85294-2.0106 0.89338-2.0504c0.0404-0.0398 1.2639 1.0403 2.7187 2.4002 1.5641 1.4621 3.4684 2.9912 4.6595 3.7415 1.1079 0.6979 2.7626 1.6186 3.6772 2.0459 0.91461 0.42733 2.6268 1.0145 3.8048 1.3049 1.8594 0.4583 2.6288 0.53001 5.8347 0.54383 3.1123 0.0134 4.0051-0.057 5.679-0.44756 1.0924-0.25491 2.6767-0.80108 3.5208-1.2137 1.0324-0.50473 2.0355-1.2408 3.0652-2.2493 0.84181-0.82446 1.8479-2.0151 2.2358-2.6458 0.38789-0.63074 0.99872-1.9834 1.3574-3.0059 0.35866-1.0225 0.82162-2.7493 1.0288-3.8372 0.20718-1.0879 0.47155-3.9925 0.5875-6.4547 0.11594-2.4621 0.20094-10.567 0.18889-18.011-0.0121-7.4437 6e-3 -17.235 0.0395-21.758 0.0338-4.5235 0.12464-7.4281 0.20187-6.4547 0.0772 0.9734 0.15918 1.5109 0.18212 1.1944 0.0229-0.31648 0.13834-0.73812 0.25648-0.93697 0.11813-0.19885 0.54033-1.0174 0.93824-1.8191 0.39791-0.80162 0.7845-1.5044 0.8591-1.5616 0.0746-0.0573 0.37592-0.43204 0.6696-0.83286 0.29369-0.40081 1.0442-1.2016 1.6678-1.7795 0.62361-0.5779 1.587-1.3303 2.141-1.6721 0.55392-0.34175 1.2841-0.73561 1.6226-0.87526s0.86726-0.3476 1.175-0.46212 0.78614-0.2961 1.0631-0.40352c0.27696-0.10741 0.90644-0.26116 1.3988-0.34165 0.49237-0.0805 2.5318-0.17053 4.5322-0.20009l3.6369-0.0537-3e-3 28.14c-2e-3 17.244-0.0916 29.301-0.23317 31.137-0.12703 1.6485-0.42658 4.0619-0.66568 5.363-0.23909 1.3011-0.69562 3.2094-1.0145 4.2406-0.3189 1.0312-0.83357 2.4559-1.1437 3.166s-0.90104 1.9139-1.3131 2.6751-1.4592 2.3718-2.3269 3.579c-1.0439 1.4524-2.2304 2.7631-3.5073 3.8745-1.0613 0.92375-2.8268 2.2512-3.9233 2.9499s-3.1246 1.7745-4.5069 2.3907c-1.3823 0.61617-3.6018 1.4031-4.9322 1.7487-1.3304 0.34561-3.4454 0.76655-4.7 0.9354-1.2546 0.16886-3.7414 0.34862-5.5263 0.39948-1.7849 0.0508-3.6985 0.0584-4.2524 0.0168zm-184.49-2.4275c-0.0674-0.37218-0.09-19.299-0.0503-42.059l0.0722-41.383h-33.522v-13.95h87.957v13.95h-33.572v84.119h-20.764zm46.177 0.59859c0-0.043 0.36362-0.81596 0.80804-1.7178 0.44442-0.90182 2.246-4.7317 4.0034-8.5108 1.7575-3.7791 4.0017-8.5608 4.9873-10.626 0.98552-2.0652 2.6985-5.7194 3.8066-8.1204 1.1081-2.401 3.5973-7.7385 5.5317-11.861 1.9343-4.1226 5.5609-11.899 8.0589-17.282 2.4981-5.3824 7.1774-15.408 10.398-22.279 3.2211-6.8711 6.42-13.641 7.1086-15.044l1.252-2.5506h17.626l0.68305 1.4054c0.37568 0.773 2.0728 4.4038 3.7714 8.0683 1.6986 3.6646 4.9495 10.645 7.2243 15.512 2.2748 4.867 6.5053 13.909 9.4012 20.093 2.8959 6.184 7.7322 16.491 10.747 22.904 3.0152 6.413 6.6403 14.096 8.0558 17.074s3.3017 6.9596 4.1914 8.8491c0.88972 1.8896 1.7104 3.6004 1.8237 3.8018 0.19549 0.34761-0.3718 0.36353-11.124 0.31232l-11.33-0.054-1.8945-4.1643c-1.042-2.2904-2.337-5.1481-2.8778-6.3506-0.54083-1.2024-2.1941-4.8483-3.6739-8.102-1.4798-3.2536-2.77-5.9708-2.8671-6.0382-0.097-0.0674-11.014-0.0979-24.259-0.0678l-24.083 0.0548-1.3662 3.0684c-0.75141 1.6876-2.5359 5.6919-3.9655 8.8984-1.4296 3.2065-3.2679 7.3994-4.085 9.3176l-1.4857 3.4876h-8.2337c-4.5285 0-8.2337-0.0352-8.2337-0.0782zm69.36-38.806c-0.12848-0.31492-2.2024-4.9763-4.6086-10.359s-5.2602-11.754-6.342-14.159c-1.0818-2.4049-2.7144-6.1059-3.6281-8.2245-0.91363-2.1186-2.0059-4.7178-2.4273-5.776s-0.81648-1.9214-0.87802-1.9183c-0.0616 3e-3 -1.4389 3.1176-3.0608 6.9211-1.6219 3.8035-5.0312 11.6-7.5762 17.326-2.545 5.7259-5.2596 11.84-6.0324 13.586l-1.4052 3.1753h36.192zm48.481-39.633c0.1021-0.16054 0.62695-0.83064 1.1663-1.4891 0.5394-0.65848 1.0303-1.1972 1.0909-1.1972 0.0607 0-0.14669 0.31336-0.4607 0.69635-0.314 0.38299-0.57091 0.76255-0.57091 0.84346 0 0.0809 0.3525-0.10303 0.78333-0.40875 0.43083-0.30571 0.78334-0.51469 0.78334-0.46439s-0.67004 0.59098-1.489 1.2015c-0.81893 0.61052-1.4054 0.9787-1.3034 0.81817zm3.0965-2.2224c0.0863-0.12996 0.45607-0.43443 0.82164-0.6766 0.36556-0.24217 0.66466-0.3982 0.66466-0.34673 0 0.0515-0.36974 0.35593-0.82165 0.6766-0.45189 0.32066-0.75099 0.47669-0.66465 0.34673zm-0.41609-1.0886c0.2228-0.22903 0.45545-0.41643 0.517-0.41643 0.0616 0-0.0704 0.1874-0.29319 0.41643-0.22279 0.22904-0.45545 0.41643-0.517 0.41643-0.0616 0 0.0704-0.18739 0.29319-0.41643zm2.1262-0.0786c0-0.0432 0.17625-0.20721 0.39166-0.36438 0.35498-0.25899 0.3629-0.25163 0.0845 0.0786-0.16894 0.20041-0.34519 0.36438-0.39167 0.36438-0.0464 0-0.0845-0.0354-0.0845-0.0786zm-0.67143-1.483c0.41758-0.40082 0.8096-0.72875 0.87114-0.72875 0.0616 0-0.22975 0.32793-0.64733 0.72875-0.41758 0.40081-0.8096 0.72875-0.87114 0.72875-0.0616 0 0.22975-0.32794 0.64733-0.72875zm2.3349 0.33504c0.0836-0.12578 0.34774-0.32619 0.58707-0.44536 0.23934-0.11916 0.43516-0.17729 0.43516-0.12917 0 0.0481-0.26418 0.24853-0.58708 0.44535-0.3229 0.19683-0.51872 0.25496-0.43515 0.12918zm31.504-0.95969c4e-3 -0.34355 0.0547-0.45889 0.11147-0.2563 0.0568 0.20258 0.053 0.48367-8e-3 0.62464-0.0613 0.14097-0.10773-0.0248-0.10317-0.36834zm-27.796-1.2346c0-0.0573 0.20143-0.20439 0.44762-0.32697s0.44762-0.17602 0.44762-0.11876c0 0.0573-0.20143 0.2044-0.44762 0.32698-0.24619 0.12257-0.44762 0.17601-0.44762 0.11875zm1.7308-0.97745c0.15182-0.1423 0.33241-0.20627 0.40132-0.14217 0.0689 0.0641-0.0553 0.18054-0.27603 0.25873-0.31898 0.11299-0.34469 0.0891-0.12529-0.11656zm0.73111-0.27183c0-0.0573 0.20143-0.2044 0.44763-0.32698 0.24618-0.12257 0.44761-0.17602 0.44761-0.11876 0 0.0573-0.20143 0.2044-0.44761 0.32698-0.2462 0.12257-0.44763 0.17601-0.44763 0.11876zm24.298-0.68237c-0.12146-0.29675-0.0957-0.32067 0.12529-0.11656 0.15295 0.14124 0.22173 0.30925 0.15282 0.37335-0.0689 0.0641-0.19406-0.0514-0.27811-0.25679zm-27.879-0.78979c0.41758-0.40081 0.80959-0.72875 0.87114-0.72875 0.0616 0-0.22975 0.32794-0.64733 0.72875s-0.8096 0.72875-0.87115 0.72875c-0.0616 0 0.22976-0.32794 0.64734-0.72875zm6.2667 0.10411c0.18465-0.11101 0.43644-0.20184 0.55953-0.20184s0.0728 0.0908-0.1119 0.20184c-0.18465 0.11101-0.43644 0.20184-0.55953 0.20184-0.1231 0-0.0728-0.0908 0.1119-0.20184zm1.0594-0.44227c0.15182-0.1423 0.33241-0.20627 0.40132-0.14217 0.0689 0.0641-0.0553 0.18054-0.27603 0.25873-0.31897 0.11299-0.34468 0.0891-0.12529-0.11656zm-5.6475-1.0152c0.2228-0.22903 0.45544-0.41643 0.51699-0.41643 0.0616 0-0.0704 0.1874-0.29319 0.41643-0.22279 0.22904-0.45545 0.41643-0.51699 0.41643-0.0616 0 0.0704-0.18739 0.29319-0.41643zm47.611-4.1084-0.051-4.4207-10.407-0.11984 5.2106-0.04803c4.0587-0.03741 5.2349 0.01076 5.3203 0.21787 0.0603 0.14624 0.0801 2.1841 0.0441 4.5287l-0.0656 4.2628zm-46.827 3.6134c0-0.0432 0.17625-0.20721 0.39167-0.36438 0.35498-0.25899 0.36289-0.25162 0.0845 0.0786-0.16894 0.20041-0.34519 0.36438-0.39167 0.36438-0.0464 0-0.0845-0.0354-0.0845-0.0786zm22.381-0.56464c-0.48203-0.3668-0.4915-0.39484-0.0684-0.20246 0.27011 0.12282 0.55302 0.3165 0.62869 0.4304 0.0757 0.11391 0.10646 0.20501 0.0684 0.20247-0.0381-3e-3 -0.32094-0.19623-0.62869-0.43041zm-21.486-0.06c0-0.0432 0.17625-0.20721 0.39166-0.36438 0.35497-0.25899 0.36289-0.25162 0.0845 0.0786-0.16895 0.20041-0.3452 0.36438-0.39167 0.36438-0.0464 0-0.0845-0.0354-0.0845-0.0786zm12.491-0.68827c0.16157-0.0601 0.3546-0.0528 0.42897 0.0164 0.0743 0.0692-0.0579 0.1184-0.29375 0.10936-0.26073-0.01-0.31376-0.0593-0.13522-0.1258zm0.89525-0.20821c0.16155-0.0601 0.35459-0.0527 0.42896 0.0164 0.0743 0.0692-0.0579 0.1184-0.29375 0.10936-0.26073-0.01-0.31376-0.0593-0.13521-0.1258zm1.5527-0.20388c0.15387-0.0578 0.40566-0.0578 0.55953 0s0.028 0.10502-0.27976 0.10502c-0.30774 0-0.43364-0.0473-0.27977-0.10502zm3.3711-4e-3c0.16156-0.0601 0.3546-0.0528 0.42898 0.0164 0.0744 0.0692-0.0578 0.1184-0.29376 0.10936-0.26072-0.01-0.31376-0.0593-0.13522-0.1258zm-14.282-1.4047c0-0.0573 0.20142-0.2044 0.44761-0.32698 0.24619-0.12257 0.44762-0.17602 0.44762-0.11876 0 0.0573-0.20143 0.2044-0.44762 0.32698-0.24619 0.12257-0.44761 0.17602-0.44761 0.11876zm1.5667-0.83286c0-0.0573 0.20143-0.2044 0.44763-0.32698 0.24619-0.12257 0.44761-0.17601 0.44761-0.11876 0 0.0573-0.20142 0.2044-0.44761 0.32698-0.2462 0.12257-0.44763 0.17602-0.44763 0.11876zm1.1191-0.61702c0-0.045 0.15629-0.13763 0.34733-0.20583 0.19918-0.0711 0.28901-0.0362 0.2106 0.0818-0.0752 0.1132-0.2315 0.20583-0.34734 0.20583-0.11583 0-0.21059-0.0368-0.21059-0.0818zm2.2381-0.95925c0.18464-0.11101 0.43643-0.20183 0.55952-0.20183 0.1231 0 0.0728 0.0908-0.1119 0.20183-0.18465 0.11101-0.43643 0.20184-0.55953 0.20184-0.12309 0-0.0728-0.0908 0.11191-0.20184zm1.119-0.41643c0.18464-0.11101 0.43642-0.20183 0.55952-0.20183 0.12309 0 0.0727 0.0908-0.11191 0.20183-0.18464 0.11102-0.43643 0.20184-0.55952 0.20184-0.1231 0-0.0727-0.0908 0.11191-0.20184zm2.1961-0.76688c0.16157-0.0601 0.3546-0.0527 0.42897 0.0164 0.0744 0.0692-0.0579 0.1184-0.29375 0.10936-0.26072-0.01-0.31376-0.0593-0.13522-0.12579zm3.3432-0.82852c0.15387-0.05776 0.40566-0.05776 0.55953 0s0.028 0.10502-0.27976 0.10502c-0.30774 0-0.43364-0.04726-0.27977-0.10502zm1.133-0.21255c0.16155-0.06015 0.35459-0.05275 0.42896 0.01644 0.0744 0.06919-0.0579 0.1184-0.29375 0.10936-0.26073-0.01-0.31376-0.05933-0.13521-0.1258zm2.1153-0.21539c0.3402-0.04786 0.84377-0.04658 1.119 0.0028 0.27528 0.04942-3e-3 0.08858-0.61855 0.08702-0.61547-0.0016-0.84069-0.042-0.50049-0.08986zm-11.974-1.2471c0.2784-0.04981 0.68126-0.04791 0.89524 0.0042 0.21399 0.05211-0.0138 0.09286-0.50618 0.09055-0.49238-0.0023-0.66746-0.04495-0.38906-0.09475zm3.2457-0.0021c0.3402-0.04786 0.84377-0.04658 1.119 0.0028 0.27527 0.04942-3e-3 0.08858-0.61856 0.08702-0.61548-0.0016-0.8407-0.042-0.50049-0.08986zm-5.1464-0.2031c0.21775-0.05279 0.5199-0.04932 0.67143 0.0077 0.15152 0.05704-0.0266 0.10023-0.39593 0.09598-0.36929-0.0043-0.49326-0.05091-0.2755-0.1037zm7.6095 0c0.21775-0.05279 0.5199-0.04932 0.67143 0.0077 0.15152 0.05704-0.0267 0.10023-0.39593 0.09598-0.36929-0.0043-0.49326-0.05091-0.2755-0.1037zm-9.5576-0.45854c-0.0681-0.10252 0.01-0.23413 0.17329-0.29247 0.16342-0.05835 0.29713 0.02554 0.29713 0.1864 0 0.16086-0.078 0.29247-0.1733 0.29247s-0.22902-0.08388-0.29712-0.1864zm12.407-0.10043c0-0.04324 0.17625-0.20721 0.39168-0.36438 0.35497-0.25899 0.36289-0.25163 0.0845 0.07861-0.16894 0.20041-0.34519 0.36438-0.39166 0.36438-0.0464 0-0.0845-0.03537-0.0845-0.07862zm9.8663 0.0038c0.0513-0.04115 0.3954-0.13769 0.76468-0.21454 0.49035-0.10204 0.5809-0.08272 0.33572 0.07163-0.18464 0.11624-0.52875 0.21279-0.76469 0.21454-0.23593 0.0017-0.387-0.03048-0.33571-0.07163zm-0.9671-0.35686c-0.21391-0.11594-0.49763-0.41761-0.6305-0.67037l-0.24157-0.45957 0.40669 0.44136c0.22368 0.24275 0.60811 0.54441 0.8543 0.67037s0.34691 0.22901 0.22382 0.22901c-0.1231 0-0.39883-0.09486-0.61274-0.2108zm2.5151-0.06337c0-0.04323 0.17625-0.20721 0.39166-0.36438 0.35498-0.25899 0.3629-0.25163 0.0845 0.07862-0.16894 0.20041-0.34519 0.36438-0.39167 0.36438-0.0464 0-0.0845-0.03537-0.0845-0.07862zm-27.878-0.66163c-0.40964-0.30532-0.4025-0.30966 0.12508-0.0759 0.30774 0.13635 0.60149 0.28206 0.65278 0.32381 0.0513 0.04175-5e-3 0.0759-0.12508 0.0759s-0.41383-0.14571-0.65278-0.32381zm5.2904-0.21408c0.0108-0.24256 0.0638-0.2919 0.13522-0.1258 0.0646 0.1503 0.0567 0.32989-0.0177 0.39908-0.0744 0.06919-0.12726-0.05379-0.11754-0.27328zm-2.4924-0.80713c-0.0852-0.88774-0.17762-1.0529-0.65861-1.1765l-0.55953-0.14378 0.61122-0.02075c0.46525-0.0158 0.64289 0.09667 0.74388 0.47097 0.073 0.27045 0.0943 0.80921 0.0474 1.1972-0.0735 0.60834-0.0989 0.56327-0.18435-0.32718zm14.567 0.82448c0-0.11452 0.0976-0.34876 0.21696-0.52054 0.11933-0.17178 0.21695-0.21863 0.21695-0.10411s-0.0976 0.34876-0.21695 0.52054c-0.11933 0.17178-0.21696 0.21863-0.21696 0.10411zm6.9832-0.93697c0-0.40081 0.0461-0.56478 0.10235-0.36438 0.0563 0.20041 0.0563 0.52834 0 0.72875-0.0563 0.20041-0.10235 0.03644-0.10235-0.36438zm4.4419 0.29497c0.0107-0.24256 0.0638-0.2919 0.13522-0.1258 0.0646 0.1503 0.0567 0.32989-0.0177 0.39908-0.0743 0.06919-0.12726-0.05379-0.11754-0.27328zm-24.218-0.65935c-0.27839-0.33024-0.27047-0.3376 0.0845-0.07862 0.21542 0.15717 0.39168 0.32114 0.39168 0.36438 0 0.04323-0.0381 0.07861-0.0845 0.07861s-0.22272-0.16397-0.39167-0.36438zm-5.7905-0.24798c0-0.10776 0.0996-0.25317 0.22125-0.32314 0.12687-0.07294 0.16438 0.01063 0.088 0.19593-0.0733 0.17772-0.17287 0.32314-0.22125 0.32314-0.0484 0-0.088-0.08817-0.088-0.19593zm10.575-0.16142c0.33852-0.0477 0.89245-0.0477 1.231 0 0.33851 0.04771 0.0616 0.08674-0.61547 0.08674-0.67703 0-0.954-0.03903-0.61549-0.08674zm-5.3423-0.30763c-0.0613-0.09233 0.42317-0.16048 1.0767-0.15144 0.65351 9e-3 1.0875 0.0491 0.9644 0.08902-0.1231 0.03992-0.6076 0.10807-1.0767 0.15144-0.46909 0.04338-0.90307 0.0033-0.96441-0.08902zm3.4399 0.11065c0.15387-0.05776 0.40565-0.05776 0.55952 0 0.15388 0.05776 0.028 0.10502-0.27975 0.10502s-0.43363-0.04726-0.27977-0.10502zm17.066-0.0033c0-0.11586 0.2266-0.38914 0.50357-0.60729l0.50358-0.39665-0.44524 0.52054c-0.24488 0.2863-0.47149 0.55958-0.50357 0.60729-0.0321 0.04771-0.0584-8e-3 -0.0584-0.12389zm3.7166-0.45174-0.42391-0.5522 0.52338 0.4627c0.28785 0.25448 0.47861 0.50297 0.42391 0.5522-0.0547 0.04922-0.29023-0.15899-0.52338-0.4627zm-28.615 0.24687c0.15387-0.05776 0.40566-0.05776 0.55953 0 0.15386 0.05776 0.028 0.10502-0.27977 0.10502-0.30774 0-0.43363-0.04726-0.27976-0.10502zm20.087-1.1114c0.60623-0.57259 1.1526-1.0411 1.2141-1.0411 0.0616 0-0.38409 0.46848-0.99031 1.0411-0.60623 0.57259-1.1526 1.0411-1.2141 1.0411-0.0616 0 0.3841-0.46848 0.99032-1.0411zm21.097 0.89381c0.27839-0.04981 0.68125-0.04791 0.89523 0.0042s-0.0138 0.09286-0.50618 0.09055c-0.49238-0.0023-0.66746-0.04495-0.38905-0.09475zm-1.0943-0.42533c-0.2784-0.33024-0.27048-0.3376 0.0845-0.07862 0.21542 0.15717 0.39167 0.32114 0.39167 0.36438 0 0.04324-0.0381 0.07861-0.0845 0.07861s-0.22272-0.16397-0.39166-0.36438zm-13.77-0.30913c0.14211-0.08414 0.45981-0.15297 0.70601-0.15297 0.24619 0 0.56389 0.06883 0.70601 0.15297 0.14211 0.08413-0.17559 0.15297-0.70601 0.15297-0.53043 0-0.84813-0.06883-0.70601-0.15297zm17.827 0.04886c0.18464-0.11101 0.43643-0.20184 0.55952-0.20184 0.1231 0 0.0727 0.09083-0.1119 0.20184-0.18464 0.11101-0.43643 0.20184-0.55953 0.20184-0.12309 0-0.0727-0.09083 0.11191-0.20184zm-37.418-0.14224c0.16156-0.06015 0.3546-0.05275 0.42896 0.01644 0.0744 0.06919-0.0579 0.1184-0.29374 0.10936-0.26073-0.01-0.31376-0.05933-0.13522-0.1258zm32.466-0.22214c-0.2784-0.33024-0.27048-0.3376 0.0845-0.07861 0.21542 0.15717 0.39167 0.32114 0.39167 0.36438 0 0.04324-0.0381 0.07862-0.0845 0.07862s-0.22272-0.16397-0.39166-0.36438zm5.8476 0.07433c0-0.04501 0.15631-0.13763 0.34735-0.20583 0.19917-0.0711 0.289-0.0362 0.2106 0.08183-0.0752 0.11321-0.23152 0.20583-0.34734 0.20583-0.11583 0-0.21061-0.03682-0.21061-0.08183zm0.89525-0.42406c0-0.05726 0.20142-0.2044 0.44761-0.32697 0.24619-0.12258 0.44763-0.17602 0.44763-0.11876s-0.20144 0.2044-0.44763 0.32697c-0.24619 0.12258-0.44761 0.17602-0.44761 0.11876zm-8.406-0.65078c-0.41719-0.31095-0.41445-0.31479 0.0691-0.09678 0.27696 0.12486 0.50357 0.27058 0.50357 0.32381s-0.0311 0.09678-0.0691 0.09678c-0.0381 0-0.26463-0.14571-0.50357-0.32381zm9.5251 0.03698c0-0.04323 0.17626-0.2072 0.39167-0.36438 0.35498-0.25899 0.3629-0.25163 0.0845 0.07862-0.16895 0.20041-0.3452 0.36438-0.39167 0.36438-0.0464 0-0.0845-0.03537-0.0845-0.07861zm-24.843-0.42732c0-0.05726 0.20144-0.2044 0.44763-0.32697 0.24619-0.12258 0.44762-0.17602 0.44762-0.11876 0 0.05726-0.20143 0.2044-0.44762 0.32697s-0.44763 0.17602-0.44763 0.11876zm25.738-0.18391c0-0.03583 0.32732-0.34035 0.72738-0.6767l0.72738-0.61155-0.65735 0.6767c-0.36154 0.37218-0.68886 0.6767-0.72738 0.6767-0.0385 0-0.07-0.02932-0.07-0.06515zm-48.127-0.46421c-0.19581-0.21949-0.21382-0.38876-0.0569-0.53474 0.12628-0.11748 0.62055-0.17611 1.0984-0.13028l0.86878 0.08331-0.95119 0.035c-0.52316 0.01925-0.9512 0.12404-0.9512 0.23287 0 0.10883 0.17625 0.29337 0.39167 0.4101s0.27811 0.21508 0.13931 0.21856c-0.13879 0.0035-0.38128-0.13818-0.53884-0.31482zm23.732-0.09528c0.18465-0.11101 0.43643-0.20184 0.55952-0.20184 0.1231 0 0.0728 0.09083-0.1119 0.20184-0.18464 0.11101-0.43643 0.20184-0.55953 0.20184-0.12309 0-0.0728-0.09083 0.11191-0.20184zm1.119-0.41643c0.18464-0.11101 0.48679-0.19669 0.67143-0.19039 0.22136 0.0076 0.18325 0.0724-0.1119 0.19039-0.24619 0.09842-0.54834 0.1841-0.67144 0.19039-0.12309 0.0063-0.0727-0.07938 0.11191-0.19039zm-27.081-0.41643c-0.20172-0.12128-0.22932-0.20311-0.0692-0.20503 0.1466-0.0017 0.3288 0.09051 0.40487 0.20503 0.076 0.11452 0.1072 0.20678 0.0692 0.20503-0.0381-0.0017-0.22024-0.09402-0.40488-0.20503zm4.4762 0.1296c0-0.04323 0.17625-0.20721 0.39166-0.36438 0.35497-0.25899 0.36289-0.25163 0.0845 0.07862-0.16895 0.20041-0.3452 0.36438-0.39167 0.36438-0.0464 0-0.0845-0.03537-0.0845-0.07862zm23.906-0.06363c0.16157-0.06015 0.3546-0.05275 0.42897 0.01644 0.0744 0.06919-0.0579 0.1184-0.29375 0.10936-0.26072-0.01-0.31376-0.05933-0.13522-0.1258zm6.2667 0c0.16157-0.06015 0.3546-0.05275 0.42897 0.01644 0.0744 0.06919-0.0579 0.1184-0.29374 0.10936-0.26073-0.01-0.31376-0.05933-0.13523-0.1258zm-5.2735-0.20951c0.21542-0.05237 0.56792-0.05237 0.78334 0 0.21541 0.05237 0.0392 0.09522-0.39167 0.09522-0.43083 0-0.60708-0.04285-0.39167-0.09522zm3.8048 0c0.21541-0.05237 0.56791-0.05237 0.78333 0s0.0392 0.09522-0.39167 0.09522c-0.43084 0-0.60709-0.04285-0.39166-0.09522zm18.744 0.07837c0-0.03583 0.32732-0.34035 0.72738-0.6767l0.72738-0.61155-0.65734 0.6767c-0.36155 0.37218-0.68888 0.6767-0.72739 0.6767-0.0385 0-0.07-0.02932-0.07-0.06515zm-53.211-0.58345c-0.40007-0.23835-0.72739-0.47431-0.72739-0.52436 0-0.05004 0.17625-8.66e-4 0.39167 0.1093 0.21541 0.11016 0.5931 0.34471 0.83929 0.52124 0.24619 0.17653 0.39726 0.32236 0.33571 0.32407-0.0616 0.0017-0.43923-0.1919-0.83928-0.43026zm45.601 0.36177c0-0.04323 0.17625-0.20721 0.39166-0.36438 0.35498-0.25899 0.36289-0.25163 0.0845 0.07862-0.16894 0.20041-0.34519 0.36438-0.39167 0.36438-0.0464 0-0.0845-0.03537-0.0845-0.07861zm-39.137-0.75425c-0.0174-0.2863-0.27975-0.89532-0.58301-1.3534-0.30328-0.45807-0.55454-0.90313-0.55838-0.98902-4e-3 -0.08589 0.11052-0.15616 0.25412-0.15616 0.14361 0 0.1975 0.05919 0.11974 0.13152-0.0777 0.07234 0.11437 0.53749 0.42693 1.0337 0.32877 0.52192 0.52698 1.1027 0.47026 1.378-0.0941 0.45691-0.0993 0.45513-0.12966-0.04466zm6.685 0.20822c-0.18465-0.11101-0.23501-0.20184-0.11191-0.20184 0.12309 0 0.37488 0.09083 0.55952 0.20184 0.18464 0.11101 0.235 0.20184 0.11191 0.20184-0.1231 0-0.37488-0.09083-0.55952-0.20184zm-1.1191-0.41643c-0.18464-0.11101-0.23499-0.20184-0.1119-0.20184 0.1231 0 0.37488 0.09083 0.55953 0.20184 0.18464 0.11101 0.235 0.20184 0.1119 0.20184-0.12309 0-0.37488-0.09083-0.55953-0.20184zm2.2381 0c-0.20171-0.12128-0.22932-0.20311-0.0692-0.20503 0.1466-0.0017 0.3288 0.09051 0.40488 0.20503 0.076 0.11452 0.1072 0.20678 0.0692 0.20503-0.0381-0.0017-0.22023-0.09402-0.40488-0.20503zm-15.907-0.57259-0.54258-0.57259 0.61547 0.50478c0.33851 0.27763 0.61548 0.53529 0.61548 0.57259 0 0.03729-0.0328 0.06781-0.0729 0.06781s-0.31706-0.25767-0.61549-0.57259zm48.136 0.05206c0.2891-0.2863 0.576-0.52054 0.63755-0.52054 0.0616 0-0.12464 0.23424-0.41375 0.52054-0.2891 0.2863-0.576 0.52054-0.63755 0.52054-0.0616 0 0.12464-0.23424 0.41375-0.52054zm-43.4 0.20821c7e-3 -0.11452 0.0989-0.39561 0.20465-0.62464 0.12683-0.27458 0.19654-0.31004 0.20465-0.10411 7e-3 0.17178-0.0853 0.45287-0.20465 0.62464-0.11932 0.17178-0.21142 0.21863-0.20465 0.10411zm7.8142-0.10411c-0.18464-0.11101-0.235-0.20184-0.1119-0.20184 0.12309 0 0.37488 0.09083 0.55952 0.20184 0.18465 0.11101 0.235 0.20184 0.11191 0.20184-0.1231 0-0.37489-0.09083-0.55953-0.20184zm2.4619 0c-0.20173-0.12128-0.22933-0.20311-0.0692-0.20503 0.1466-0.0017 0.3288 0.09051 0.40487 0.20503 0.076 0.11452 0.1072 0.20678 0.0692 0.20503-0.0381-0.0017-0.22023-0.09402-0.40487-0.20503zm41.629-0.41643c0.26296-0.34356 0.52846-0.62464 0.59001-0.62464 0.0616 0-0.10325 0.28109-0.3662 0.62464-0.26296 0.34356-0.52846 0.62464-0.59001 0.62464-0.0616 0 0.10325-0.28109 0.3662-0.62464zm-7.3857 0.33782c0-0.04323 0.17625-0.20721 0.39167-0.36438 0.35497-0.25899 0.36289-0.25163 0.0845 0.07861-0.16894 0.20041-0.34519 0.36438-0.39167 0.36438-0.0464 0-0.0845-0.03537-0.0845-0.07862zm-35.138-0.33782c-0.20172-0.12128-0.22933-0.20311-0.0692-0.20503 0.14661-0.0017 0.3288 0.09051 0.40488 0.20503 0.076 0.11452 0.1072 0.20678 0.0692 0.20503-0.0381-0.0017-0.22023-0.09401-0.40487-0.20503zm-1.3429-0.62464c-0.43084-0.21944-0.70281-0.4029-0.60437-0.4077 0.0984-0.0048 0.47611 0.13422 0.83929 0.30894 0.36317 0.17472 0.66031 0.36211 0.66031 0.41643 0 0.05431-0.0252 0.09483-0.0559 0.09003-0.0308-0.0048-0.40845-0.18827-0.83928-0.4077zm36.705-0.62464c0.38997-0.45807 0.7594-0.83286 0.82095-0.83286 0.0616 0-0.20717 0.37479-0.59715 0.83286-0.38997 0.45807-0.75939 0.83286-0.82094 0.83286-0.0616 0 0.20716-0.37479 0.59714-0.83286zm-7.0592 0.19436c-0.0811-0.12214-0.0995-0.26672-0.0409-0.3213 0.0587-0.05458 0.16631 0.04535 0.2392 0.22207 0.0729 0.17672 0.0913 0.3213 0.0409 0.3213s-0.15805-0.09993-0.23919-0.22207zm15.116-0.19436c0.13176-0.22904 0.28991-0.41643 0.35146-0.41643 0.0616 0 4e-3 0.18739-0.12765 0.41643-0.13176 0.22904-0.28992 0.41643-0.35147 0.41643-0.0616 0-4e-3 -0.18739 0.12766-0.41643zm-58.624-0.01978c-8e-3 -0.18266 0.17-0.48717 0.39511-0.6767s0.50208-0.34174 0.61548-0.33826c0.1134 0.0035 0.0235 0.10518-0.19977 0.226-0.22327 0.12082-0.49385 0.42248-0.60129 0.67037-0.13223 0.3051-0.19992 0.34341-0.20953 0.1186zm8.8962 0.08576c0.16157-0.06015 0.3546-0.05275 0.42898 0.01644 0.0743 0.06919-0.0579 0.1184-0.29375 0.10936-0.26073-0.01-0.31376-0.05933-0.13523-0.1258zm2.4479-0.59963c-0.83089-0.39676-1.5107-0.76812-1.5107-0.82524s0.70499 0.22644 1.5667 0.63013 1.5667 0.77966 1.5667 0.83548c0 0.05582-0.0252 0.09688-0.0559 0.09125-0.0308-0.0057-0.73578-0.33486-1.5667-0.73162zm41.349-0.091c0.2228-0.22904 0.45545-0.41643 0.517-0.41643 0.0616 0-0.0704 0.18739-0.29319 0.41643s-0.45545 0.41643-0.517 0.41643c-0.0616 0 0.0704-0.18739 0.29319-0.41643zm3.9769 0.27214c0.21776-0.05279 0.5199-0.04932 0.67143 0.0077 0.15152 0.05704-0.0267 0.10023-0.39593 0.09598-0.36929-0.0042-0.49326-0.05091-0.2755-0.1037zm-50.865-0.27214c-0.2869-0.17249-0.27877-0.2023 0.0559-0.20503 0.21541-0.0017 0.39166 0.09051 0.39166 0.20503 0 0.11452-0.0252 0.20678-0.0559 0.20503-0.0308-0.0017-0.20702-0.09402-0.39167-0.20503zm-1.175-0.34611c0.15387-0.05776 0.40566-0.05776 0.55953 0s0.028 0.10502-0.27976 0.10502c-0.30774 0-0.43363-0.04726-0.27977-0.10502zm50.964-0.08417c-0.0811-0.12214-0.0995-0.26672-0.0408-0.3213s0.16631 0.04535 0.2392 0.22207c0.0729 0.17672 0.0913 0.3213 0.0409 0.3213s-0.15806-0.09993-0.2392-0.22207zm-53.423-0.13341c0.27841-0.04981 0.68126-0.04791 0.89525 0.0042 0.21398 0.05211-0.0138 0.09286-0.50618 0.09055-0.49239-0.0023-0.66747-0.04495-0.38907-0.09475zm19.737-0.84176-0.77129-0.7808 0.83929 0.71754c0.4616 0.39465 0.83929 0.74601 0.83929 0.78081 0 0.03479-0.0306 0.06326-0.068 0.06326s-0.41508-0.35136-0.83929-0.78081zm17.263 0.45113c0.0108-0.24256 0.0638-0.2919 0.13522-0.1258 0.0646 0.1503 0.0567 0.32989-0.0177 0.39908-0.0743 0.06919-0.12727-0.05379-0.11755-0.27328zm14.306 0.04285c0-0.04324 0.17626-0.20721 0.39167-0.36438 0.35498-0.25899 0.3629-0.25163 0.0845 0.07862-0.16895 0.20041-0.3452 0.36438-0.39167 0.36438-0.0464 0-0.0845-0.03537-0.0845-0.07861zm5.6845-0.18166c-0.0885-0.14315-0.0786-0.19081 0.0222-0.10591 0.10073 0.0849 0.32061 0.04822 0.48862-0.0815 0.24143-0.1864 0.27593-0.1642 0.16451 0.10591-0.0776 0.18798-0.22497 0.34177-0.32763 0.34177s-0.25911-0.11712-0.34765-0.26027zm-6.9129-0.44285c0.21156-0.3004 0.42699-0.54617 0.47871-0.54617 0.0517 0-0.0108 0.18218-0.13885 0.40483-0.12809 0.22266-0.34351 0.46844-0.47871 0.54617-0.13521 0.07774-0.0727-0.10444 0.13885-0.40483zm3.0494-0.3222-0.0305-0.71299-0.61547 0.50402c-0.56889 0.46587-0.56466 0.45162 0.0559-0.18824 0.61518-0.63426 0.67743-0.656 0.74295-0.25951 0.0393 0.23801 0.0278 0.64356-0.0255 0.90123-0.0663 0.32044-0.10661 0.24317-0.12747-0.24451zm2.5328-0.27603-0.88471-0.88491 0.95119 0.82306c0.52316 0.45268 0.9512 0.8509 0.9512 0.88491 0 0.03402-0.0299 0.06185-0.0665 0.06185-0.0365 0-0.46461-0.39821-0.95119-0.88491zm-50.459 0.26027c-0.20172-0.12128-0.22932-0.20311-0.0692-0.20503 0.1466-0.0017 0.3288 0.09051 0.40487 0.20503 0.076 0.11452 0.1072 0.20678 0.0692 0.20503-0.0381-0.0017-0.22023-0.09402-0.40487-0.20503zm26.651-0.32967c0.0107-0.24256 0.0638-0.2919 0.13521-0.1258 0.0646 0.1503 0.0567 0.32989-0.0177 0.39908-0.0744 0.06919-0.12727-0.05379-0.11755-0.27328zm-27.826-0.20585c-0.33852-0.17085-0.61548-0.3569-0.61548-0.41344 0-0.05654 0.30214 0.04255 0.67143 0.22021 0.36928 0.17766 0.67143 0.36746 0.67143 0.42178 0 0.05432-0.0252 0.09501-0.0559 0.09042-0.0308-0.0046-0.33292-0.14812-0.67143-0.31897zm32.823-3.3165c2.8e-4 -1.8323 0.0345-2.554 0.0761-1.6038 0.0415 0.95021 0.0414 2.4494-5.2e-4 3.3314-0.0419 0.88208-0.0759 0.10463-0.0755-1.7277zm0.59851 2.8977c0.0107-0.24256 0.0638-0.2919 0.13521-0.1258 0.0646 0.1503 0.0567 0.32989-0.0177 0.39908-0.0744 0.06919-0.12726-0.05379-0.11754-0.27328zm-20.173-0.65935-0.77128-0.78081 0.83928 0.71754c0.46162 0.39465 0.83929 0.74601 0.83929 0.78081 0 0.03479-0.0306 0.06326-0.068 0.06326s-0.41508-0.35136-0.83929-0.78081zm-1.9567 0.06682c-0.40581-0.26694-0.80867-0.55801-0.89524-0.64682-0.0866-0.08881 0.17765 0.01708 0.58718 0.23529 0.40952 0.21822 0.8499 0.51388 0.9786 0.65703s0.19649 0.25567 0.15064 0.25006c-0.0458-0.0056-0.41537-0.22862-0.82118-0.49556zm16.776 0.08934c0-0.2863 0.0508-0.40342 0.11289-0.26027 0.0621 0.14315 0.0621 0.37739 0 0.52054-0.0621 0.14315-0.11289 0.02602-0.11289-0.26027zm-27.788-0.20822c-0.18465-0.11101-0.235-0.20184-0.11191-0.20184 0.12311 0 0.37489 0.09083 0.55953 0.20184 0.18464 0.11101 0.235 0.20184 0.1119 0.20184-0.12309 0-0.37487-0.09083-0.55952-0.20184zm2.644-0.37084c0.33067-0.31848 0.64357-0.55235 0.69534-0.51972 0.0518 0.03263-0.14203 0.29321-0.43068 0.57906-0.28865 0.28584-0.60155 0.51972-0.69534 0.51972-0.0938 0 0.10002-0.26058 0.43068-0.57906zm44.804-0.2538c0.25119-0.45807 0.50707-0.83286 0.56862-0.83286 0.0616 0-0.0936 0.37479-0.34482 0.83286-0.25118 0.45807-0.50707 0.83286-0.56862 0.83286-0.0616 0 0.0936-0.37479 0.34482-0.83286zm6.732 0.29497c0.0107-0.24256 0.0638-0.2919 0.13522-0.1258 0.0646 0.1503 0.0567 0.32989-0.0177 0.39908-0.0744 0.06919-0.12727-0.05379-0.11755-0.27328zm-57.438-0.20235c-0.41719-0.31095-0.41444-0.31479 0.0691-0.09678 0.27697 0.12487 0.50358 0.27058 0.50358 0.32381 0 0.05323-0.0311 0.09678-0.0691 0.09678s-0.26462-0.14571-0.50357-0.32381zm36.624-0.0059c0.0108-0.24256 0.0638-0.2919 0.13522-0.1258 0.0646 0.1503 0.0567 0.32989-0.0177 0.39908-0.0744 0.06919-0.12727-0.05379-0.11755-0.27328zm16.992 0.19596c0-0.11172 0.15662-0.385 0.34806-0.60729 0.32819-0.3811 0.33285-0.37445 0.0816 0.11636-0.14656 0.2863-0.3032 0.55958-0.34807 0.60729-0.0449 0.04771-0.0816-0.0046-0.0816-0.11636zm-54.945-1.0297-0.67143-0.53671 0.72737 0.44782c0.40007 0.2463 0.72739 0.48828 0.72739 0.53774 0 0.04946-0.0252 0.08946-0.0559 0.0889-0.0308-5.69e-4 -0.3581-0.24255-0.72738-0.53774zm3.0283 0.43467c0-0.11452 0.0976-0.34876 0.21695-0.52054 0.11933-0.17178 0.21696-0.21863 0.21696-0.10411s-0.0976 0.34876-0.21696 0.52054c-0.11933 0.17178-0.21695 0.21862-0.21695 0.10411zm12.18-0.98902-0.88471-0.88491 0.95119 0.82306c0.52316 0.45268 0.9512 0.8509 0.9512 0.88491 0 0.03402-0.03 0.06185-0.0665 0.06185s-0.4646-0.39821-0.95119-0.88491zm23.003 0.05206c0-0.40081 0.046-0.56478 0.10235-0.36438 0.0563 0.20041 0.0563 0.52834 0 0.72875s-0.10235 0.03644-0.10235-0.36438zm17.405 0.35128c0-0.03583 0.32732-0.34035 0.72738-0.6767l0.72738-0.61155-0.65735 0.6767c-0.36154 0.37218-0.68886 0.6767-0.72738 0.6767-0.0385 0-0.07-0.02932-0.07-0.06515zm-57.307-1.1321-0.77129-0.7808 0.83929 0.71754c0.46161 0.39465 0.83929 0.74601 0.83929 0.7808 0 0.03479-0.0306 0.06326-0.068 0.06326s-0.41508-0.35136-0.83929-0.7808zm33.619 0.36438c0-0.2863 0.0507-0.40342 0.11289-0.26027 0.0621 0.14315 0.0621 0.37739 0 0.52054s-0.11289 0.02602-0.11289-0.26027zm13.624 0.31232c0-0.11452 0.0976-0.34876 0.21696-0.52054 0.11932-0.17178 0.21695-0.21862 0.21695-0.10411s-0.0976 0.34876-0.21695 0.52054c-0.11933 0.17178-0.21696 0.21863-0.21696 0.10411zm-34.151-0.42792c-0.41719-0.31095-0.41444-0.31479 0.0691-0.09678 0.27696 0.12486 0.50358 0.27058 0.50358 0.32381s-0.0311 0.09678-0.0691 0.09678-0.26462-0.14571-0.50357-0.32381zm32.819-0.0059c0.0107-0.24256 0.0638-0.2919 0.13522-0.1258 0.0646 0.1503 0.0567 0.32989-0.0177 0.39908-0.0743 0.06919-0.12727-0.05379-0.11755-0.27328zm14.25-0.53789c-0.29828-0.29071-0.31733-0.38173-0.0799-0.38173 0.17148 0 0.37528 0.15396 0.45289 0.34212 0.0777 0.18817 0.11357 0.35995 0.0799 0.38173-0.0337 0.02178-0.23747-0.13217-0.45288-0.34212zm-54.554 0.04699c0-0.10776 0.0996-0.25317 0.22125-0.32314 0.12687-0.07294 0.16439 0.01063 0.088 0.19593-0.0733 0.17773-0.17286 0.32314-0.22124 0.32314-0.0484 0-0.088-0.08817-0.088-0.19593zm49.238 0c0-0.10776 0.0996-0.25317 0.22124-0.32314 0.12687-0.07294 0.1644 0.01063 0.088 0.19593-0.0733 0.17773-0.17287 0.32314-0.22124 0.32314-0.0484 0-0.088-0.08817-0.088-0.19593zm4.1927-0.03813c0.15182-0.1423 0.33241-0.20627 0.40133-0.14217 0.0689 0.0641-0.0553 0.18053-0.27603 0.25872-0.31898 0.113-0.34469 0.08908-0.1253-0.11656zm-44.048-0.54675-0.54258-0.57259 0.61548 0.50478c0.33851 0.27763 0.61548 0.53529 0.61548 0.57259 0 0.03729-0.0328 0.06781-0.0729 0.06781s-0.31705-0.25767-0.61547-0.57259zm18.387 0.24292c0.0108-0.24256 0.0638-0.2919 0.13522-0.1258 0.0646 0.1503 0.0567 0.32989-0.0177 0.39908-0.0744 0.06919-0.12726-0.05379-0.11755-0.27328zm-22.061-0.08437c-0.0784-0.11803 0.0114-0.15294 0.2106-0.08183 0.19104 0.0682 0.34734 0.16082 0.34734 0.20583 0 0.04501-0.0948 0.08183-0.2106 0.08183-0.11583 0-0.27213-0.09262-0.34734-0.20583zm-2.4491-0.35778c-0.12145-0.29675-0.0957-0.32066 0.1253-0.11656 0.15295 0.14124 0.22171 0.30925 0.15281 0.37336-0.0689 0.06411-0.19406-0.05145-0.27811-0.2568zm1.5539-0.05865c-0.0784-0.11803 0.0114-0.15294 0.2106-0.08183 0.19104 0.0682 0.34735 0.16082 0.34735 0.20583 0 0.04501-0.0948 0.08183-0.21061 0.08183-0.11583 0-0.27213-0.09262-0.34734-0.20583zm14.629-0.15855c-0.27839-0.33024-0.27047-0.3376 0.0845-0.07862 0.21541 0.15717 0.39166 0.32114 0.39166 0.36438 0 0.04324-0.0381 0.07862-0.0845 0.07862s-0.22273-0.16397-0.39167-0.36438zm15.085-0.46848c0-0.51533 0.0436-0.72615 0.097-0.46848s0.0534 0.6793 0 0.93697-0.097 0.04685-0.097-0.46848zm6.2234 0.29497c0.0107-0.24256 0.0638-0.2919 0.13521-0.1258 0.0646 0.1503 0.0567 0.32989-0.0177 0.39908-0.0743 0.06919-0.12726-0.05379-0.11754-0.27328zm-13.205-0.20822c0.0107-0.24256 0.0638-0.2919 0.13521-0.1258 0.0646 0.1503 0.0567 0.32989-0.0177 0.39908-0.0743 0.06919-0.12727-0.05379-0.11755-0.27328zm-24.637-0.19086c0-0.18046 0.13327-0.25168 0.33571-0.1794 0.18465 0.06591 0.33572 0.14665 0.33572 0.1794 0 0.03275-0.15107 0.11349-0.33572 0.1794-0.20244 0.07227-0.33571 1e-3 -0.33571-0.1794zm5.1191-0.05206c-0.27839-0.33024-0.27048-0.3376 0.0845-0.07862 0.21542 0.15717 0.39167 0.32114 0.39167 0.36438 0 0.04323-0.0381 0.07862-0.0845 0.07862s-0.22273-0.16397-0.39167-0.36438zm-14.931-0.26027c0-0.2863 0.0507-0.40342 0.11288-0.26027 0.0621 0.14315 0.0621 0.37739 0 0.52054s-0.11288 0.02603-0.11288-0.26027zm25.674 0.05206c-0.27839-0.33024-0.27047-0.3376 0.0845-0.07862 0.21541 0.15717 0.39166 0.32114 0.39166 0.36438 0 0.04323-0.0381 0.07862-0.0845 0.07862-0.0465 0-0.22273-0.16397-0.39167-0.36438zm-17.975-0.371c-0.23894-0.16814-0.32681-0.3057-0.19526-0.3057s0.36456 0.14054 0.5178 0.31232 0.24111 0.30934 0.19527 0.3057c-0.0459-0.0036-0.27886-0.14419-0.51781-0.31232zm6.2322-0.14954-0.42636-0.46848 0.50358 0.39665c0.27697 0.21816 0.50357 0.42897 0.50357 0.46848s-0.0348 0.07184-0.0772 0.07184c-0.0425 0-0.26907-0.21082-0.50357-0.46848zm10.743-0.62464-0.42636-0.46848 0.50358 0.39665c0.27696 0.21816 0.50357 0.42897 0.50357 0.46848s-0.0348 0.07183-0.0772 0.07183c-0.0425 0-0.26907-0.21082-0.50357-0.46848zm-11.862-0.20822-0.42636-0.46848 0.50357 0.39665c0.27696 0.21816 0.50357 0.42897 0.50357 0.46848s-0.0348 0.07184-0.0772 0.07184c-0.0425 0-0.26908-0.21082-0.50357-0.46848zm35.307 0.05206c0-0.2863 0.0508-0.40342 0.11289-0.26027 0.0621 0.14315 0.0621 0.37739 0 0.52054s-0.11289 0.02603-0.11289-0.26027zm-42.825 0.06598c0.16157-0.06015 0.3546-0.05275 0.42897 0.01644 0.0744 0.06919-0.0578 0.1184-0.29374 0.10936-0.26073-0.01-0.31376-0.05933-0.13523-0.1258zm28.707-0.18744c0.0108-0.24256 0.0638-0.2919 0.13522-0.1258 0.0646 0.1503 0.0567 0.32989-0.0177 0.39908-0.0743 0.06919-0.12727-0.05379-0.11755-0.27328zm20.517 0.19178c0.15387-0.05776 0.40565-0.05776 0.55952 0s0.028 0.10502-0.27976 0.10502c-0.30775 0-0.43363-0.04726-0.27976-0.10502zm-52.368-0.22122c0.40226-0.04634 1.0065-0.04538 1.3429 0.0021 0.3363 0.04751 7e-3 0.08543-0.7314 0.08426-0.73857-0.0012-1.0137-0.04004-0.61146-0.08638zm54.521-0.86064c0.56988-0.61361 1.0481-1.2226 1.0626-1.3534 0.0145-0.13076 0.0242-0.2846 0.0214-0.34186-3e-3 -0.05726 0.15553-0.24158 0.35182-0.40961 0.31739-0.27169 0.33979-0.26404 0.20238 0.06908-0.085 0.20602-0.1545 0.55432-0.1545 0.77398 0 0.21967-0.0952 0.3994-0.21151 0.3994-0.11632 0-0.6833 0.44506-1.26 0.98902l-1.0484 0.98902zm0.83 0.47365c0.0108-0.24256 0.0638-0.2919 0.13523-0.1258 0.0646 0.1503 0.0567 0.32989-0.0177 0.39908-0.0744 0.06919-0.12727-0.05379-0.11756-0.27328zm-45.703-0.24292c-0.27839-0.33024-0.27047-0.33761 0.0845-0.07862 0.21542 0.15717 0.39167 0.32114 0.39167 0.36438 0 0.04323-0.0381 0.07861-0.0845 0.07861s-0.22272-0.16397-0.39167-0.36438zm11.981-0.10411-0.42636-0.46848 0.50357 0.39665c0.27697 0.21816 0.50357 0.42897 0.50357 0.46848 0 0.03951-0.0348 0.07183-0.0772 0.07183-0.0425 0-0.26908-0.21082-0.50357-0.46848zm17.905-2.9671c2.9e-4 -1.8323 0.0345-2.554 0.0761-1.6038 0.0415 0.95021 0.0414 2.4494-5.2e-4 3.3314-0.0419 0.88208-0.0759 0.10463-0.0755-1.7277zm6.659 2.8109c0-0.2863 0.0507-0.40342 0.11288-0.26027 0.0621 0.14315 0.0621 0.37739 0 0.52054-0.0621 0.14315-0.11288 0.02602-0.11288-0.26027zm-8.4965-0.31232c4e-3 -0.34355 0.0547-0.45889 0.11147-0.2563 0.0568 0.20259 0.053 0.48368-8e-3 0.62464-0.0613 0.14097-0.10773-0.02478-0.10317-0.36834zm10.93 0.20822c0-0.11452 0.0976-0.34876 0.21696-0.52054 0.11932-0.17178 0.21695-0.21863 0.21695-0.10411 0 0.11452-0.0976 0.34876-0.21695 0.52054-0.11933 0.17178-0.21696 0.21863-0.21696 0.10411zm-40.202-0.57259-0.42636-0.46848 0.50358 0.39665c0.27697 0.21816 0.50357 0.42897 0.50357 0.46848s-0.0348 0.07183-0.0772 0.07183c-0.0425 0-0.26907-0.21082-0.50357-0.46848zm22.979 0.13881c0.0107-0.24256 0.0638-0.2919 0.13522-0.1258 0.0646 0.1503 0.0567 0.32989-0.0177 0.39908-0.0744 0.06919-0.12727-0.05379-0.11755-0.27328zm-11.001-0.65935-0.54258-0.57259 0.61548 0.50478c0.33851 0.27763 0.61548 0.53529 0.61548 0.57259 0 0.03729-0.0328 0.06781-0.0729 0.06781s-0.31706-0.25766-0.61548-0.57259zm8.9012-0.36699c-0.20472-0.39938-0.32607-0.72614-0.26967-0.72614s0.26362 0.2898 0.4605 0.64399 0.31823 0.68096 0.26967 0.72614c-0.0486 0.04518-0.25579-0.24462-0.4605-0.644zm17.134 0.0026c3e-3 -0.45807 0.0483-0.62095 0.10184-0.36195 0.0535 0.259 0.0515 0.63379-4e-3 0.83286-0.056 0.19907-0.0998-0.01284-0.0973-0.47091zm2.6361 0.41651c0-0.11452 0.0976-0.34876 0.21696-0.52054 0.11932-0.17178 0.21695-0.21863 0.21695-0.10411 0 0.11452-0.0976 0.34876-0.21695 0.52054-0.11933 0.17178-0.21696 0.21862-0.21696 0.10411zm-41.993-0.57259-0.42636-0.46848 0.50358 0.39665c0.27697 0.21816 0.50357 0.42897 0.50357 0.46848s-0.0348 0.07184-0.0772 0.07184c-0.0425 0-0.26907-0.21082-0.50357-0.46848zm30.391-0.05205c4e-3 -0.34355 0.0547-0.45889 0.11147-0.2563 0.0568 0.20259 0.053 0.48368-8e-3 0.62464-0.0613 0.14097-0.10774-0.02478-0.10318-0.36834zm-27.293 0.1688c0.21542-0.05237 0.56792-0.05237 0.78334 0 0.21541 0.05237 0.0392 0.09522-0.39167 0.09522-0.43083 0-0.60708-0.04285-0.39167-0.09522zm10.911-0.48112c-0.26296-0.34355-0.42775-0.62464-0.3662-0.62464 0.0616 0 0.32705 0.28109 0.59001 0.62464 0.26295 0.34356 0.42774 0.62464 0.36619 0.62464-0.0616 0-0.32705-0.28109-0.59-0.62464zm29.131 0.20822c0-0.2863 0.0508-0.40342 0.11288-0.26027 0.0621 0.14315 0.0621 0.37739 0 0.52054-0.0621 0.14315-0.11288 0.02603-0.11288-0.26027zm-37.971-0.41643c0.2228-0.22904 0.45545-0.41643 0.517-0.41643 0.0616 0-0.0704 0.18739-0.29319 0.41643-0.2228 0.22904-0.45545 0.41643-0.517 0.41643-0.0616 0 0.0704-0.18739 0.29319-0.41643zm-7.5041-1.4054-1.4483-1.4055 1.5107 1.3474c0.8309 0.74106 1.5107 1.3735 1.5107 1.4054 0 0.03194-0.0281 0.05807-0.0624 0.05807s-0.71415-0.63245-1.5107-1.4054zm44.995 0.98433c0.13028-0.22646 0.28368-0.41174 0.3409-0.41174 0.0572 0 0.10403 0.13052 0.10403 0.29004s-0.15341 0.34481-0.3409 0.41174c-0.27811 0.09929-0.29727 0.04588-0.10403-0.29005zm-3.0751-0.82817c0-0.51533 0.0436-0.72615 0.097-0.46848s0.0534 0.6793 0 0.93697-0.097 0.04685-0.097-0.46848zm6.4295 0.41643c-0.43083-0.21944-0.70279-0.4029-0.60435-0.4077 0.0984-0.0048 0.47611 0.13422 0.83929 0.30894 0.36316 0.17472 0.66031 0.36211 0.66031 0.41643 0 0.05432-0.0252 0.09483-0.0559 0.09003-0.0308-0.0048-0.40845-0.18827-0.83929-0.4077zm-22.702-0.14718c-0.12147-0.29675-0.0958-0.32066 0.12528-0.11656 0.15296 0.14124 0.22172 0.30925 0.15281 0.37336-0.0689 0.06411-0.19405-0.05145-0.27809-0.2568zm25.888-0.26925c0-0.40081 0.0461-0.56478 0.10235-0.36438 0.0563 0.20041 0.0563 0.52834 0 0.72875s-0.10235 0.03644-0.10235-0.36438zm-36.338 0.05205c-0.27839-0.33024-0.27048-0.3376 0.0845-0.07861 0.21542 0.15717 0.39167 0.32114 0.39167 0.36438 0 0.04324-0.0381 0.07861-0.0845 0.07861s-0.22272-0.16397-0.39166-0.36438zm17.28 0.0347c0.0108-0.24256 0.0638-0.2919 0.13522-0.1258 0.0646 0.1503 0.0567 0.32989-0.0177 0.39908-0.0743 0.06919-0.12726-0.05379-0.11754-0.27328zm-24.133-1.0241c3e-3 -0.45807 0.0483-0.62095 0.10186-0.36195 0.0535 0.259 0.0515 0.63379-4e-3 0.83286-0.056 0.19907-0.0998-0.01284-0.0973-0.47091zm3.7314-0.05205-0.54259-0.57259 0.61548 0.50478c0.33851 0.27763 0.61548 0.53529 0.61548 0.57259 0 0.0373-0.0328 0.06781-0.0729 0.06781s-0.31705-0.25767-0.61547-0.57259zm20.195 0.15616c0-0.2863 0.0508-0.40342 0.11288-0.26027 0.0621 0.14315 0.0621 0.37739 0 0.52054s-0.11288 0.02603-0.11288-0.26027zm-18.181-0.36438-0.54259-0.57259 0.61548 0.50478c0.33851 0.27763 0.61547 0.53529 0.61547 0.57259 0 0.0373-0.0328 0.06781-0.0729 0.06781s-0.31706-0.25767-0.61548-0.57259zm10.676-0.37242c-0.0767-0.18608-0.13649-0.40094-0.13274-0.47746 3e-3 -0.07652 0.11369 0.03186 0.24432 0.24086 0.13064 0.209 0.19038 0.42386 0.13274 0.47746-0.0576 0.05361-0.16756-0.05478-0.24432-0.24086zm-21.226-0.2025c0.12676-0.23032 0.46641-0.60444 0.75478-0.83137 0.50583-0.39808 0.50471-0.39066-0.0319 0.21054-0.3059 0.34274-0.64555 0.71685-0.75478 0.83137s-0.0949 0.01977 0.0319-0.21054zm7.1815-0.25794c-0.27839-0.33024-0.27048-0.3376 0.0845-0.07861 0.21542 0.15717 0.39167 0.32114 0.39167 0.36438 0 0.04324-0.0381 0.07861-0.0845 0.07861s-0.22273-0.16397-0.39167-0.36438zm21.308 0.0347c0.0107-0.24256 0.0638-0.2919 0.13522-0.1258 0.0646 0.15031 0.0567 0.32989-0.0177 0.39908-0.0744 0.06919-0.12727-0.05379-0.11755-0.27328zm-34.065-0.24292c-0.27839-0.33024-0.27047-0.3376 0.0845-0.07861 0.21542 0.15717 0.39167 0.32114 0.39167 0.36438 0 0.04324-0.0381 0.07861-0.0845 0.07861s-0.22272-0.16397-0.39167-0.36438zm39.286-0.31232-0.42635-0.46848 0.50357 0.39665c0.27697 0.21816 0.50358 0.42897 0.50358 0.46848s-0.0348 0.07184-0.0772 0.07184c-0.0425 0-0.26908-0.21082-0.50357-0.46848zm2.9308 0.05205c0.2228-0.22904 0.45545-0.41643 0.51699-0.41643 0.0616 0-0.0704 0.18739-0.29318 0.41643-0.2228 0.22904-0.45545 0.41643-0.517 0.41643-0.0616 0 0.0704-0.18739 0.29319-0.41643zm-28.1-0.78081-0.77128-0.78081 0.83929 0.71754c0.4616 0.39465 0.83929 0.74601 0.83929 0.7808 0 0.0348-0.0306 0.06326-0.068 0.06326s-0.41508-0.35136-0.83929-0.78081zm19.725 0.45113c0.0108-0.24256 0.0638-0.2919 0.13522-0.1258 0.0646 0.1503 0.0567 0.32989-0.0177 0.39908-0.0743 0.06919-0.12726-0.05379-0.11754-0.27328zm-22.748-0.20235c-0.41719-0.31095-0.41444-0.31479 0.0691-0.09678 0.27696 0.12486 0.50357 0.27058 0.50357 0.32381 0 0.05323-0.0311 0.09678-0.0691 0.09678-0.0381 0-0.26463-0.14571-0.50358-0.32381zm42.469-0.19673c4e-3 -0.34356 0.0547-0.45889 0.11146-0.25631 0.0568 0.20259 0.053 0.48368-8e-3 0.62464-0.0613 0.14097-0.10773-0.02478-0.10317-0.36834zm-46.596 0.24717c0-0.03583 0.32732-0.34035 0.72738-0.6767l0.72739-0.61155-0.65735 0.6767c-0.36154 0.37218-0.68887 0.6767-0.72738 0.6767-0.0385 0-0.0701-0.02932-0.0701-0.06515zm2.9095-0.21247c0-0.1929 0.17395-0.34561 0.39167-0.34384 0.22352 0.0018 0.29558 0.0699 0.16786 0.15858-0.1231 0.08547-0.29935 0.24019-0.39167 0.34384-0.0923 0.10364-0.16786 0.03228-0.16786-0.15858zm39.391 0.1439c0-0.11172 0.15663-0.385 0.34806-0.60729 0.32819-0.3811 0.33284-0.37445 0.0816 0.11637-0.14656 0.2863-0.30319 0.55958-0.34807 0.60729-0.0449 0.04772-0.0816-0.0047-0.0816-0.11636zm-5.3195-0.69914c0-0.40081 0.0461-0.56478 0.10235-0.36438 0.0563 0.20041 0.0563 0.52834 0 0.72875s-0.10235 0.03644-0.10235-0.36438zm-20.781 0.15616c-0.0907-0.14315-0.30869-0.49451-0.48444-0.78081-0.30679-0.49976-0.30455-0.50392 0.0562-0.10411 0.20664 0.22904 0.4726 0.5804 0.59101 0.7808 0.11841 0.20041 0.16732 0.36438 0.10871 0.36438-0.0586 0-0.18077-0.11712-0.27147-0.26027zm10.349-0.26832c-0.0767-0.18608-0.13317-0.44779-0.12537-0.58157 8e-3 -0.13378 0.11068-0.01882 0.22862 0.25547 0.11793 0.27429 0.17434 0.536 0.12537 0.58157-0.049 0.04557-0.15187-0.06939-0.22862-0.25547zm-18.044 0.03083c0-0.04473 0.34543-0.11885 0.76763-0.1647 0.4222-0.04586 0.7184-0.0093 0.65822 0.08133-0.0601 0.09058-0.40561 0.1647-0.76763 0.1647s-0.65822-0.0366-0.65822-0.08133zm-0.78175-0.33272c-0.0784-0.11803 0.0114-0.15294 0.21059-0.08183 0.19104 0.0682 0.34734 0.16082 0.34734 0.20583 0 0.04501-0.0948 0.08183-0.2106 0.08183-0.11583 0-0.27213-0.09262-0.34733-0.20583zm10.756-0.14957c-0.12145-0.29675-0.0957-0.32066 0.12529-0.11656 0.15296 0.14124 0.22172 0.30925 0.15282 0.37336-0.069 0.06411-0.19406-0.05145-0.27811-0.2568zm12.51-0.07489c-0.0811-0.12214-0.0995-0.26672-0.0409-0.3213 0.0586-0.05458 0.1663 0.04535 0.23919 0.22207 0.0729 0.17672 0.0913 0.3213 0.0409 0.3213s-0.15806-0.09993-0.23919-0.22207zm11.983 0.14346c0-0.04324 0.17625-0.20721 0.39167-0.36438 0.35497-0.25899 0.36289-0.25163 0.0845 0.07861-0.16894 0.20041-0.34519 0.36438-0.39167 0.36438-0.0464 0-0.0845-0.03538-0.0845-0.07861zm3.1656-0.49398c-0.24422-0.53096-0.23869-0.5432 0.076-0.16842 0.18665 0.2223 0.33936 0.47996 0.33936 0.57259s-0.0342 0.16842-0.076 0.16842-0.1945-0.25767-0.33936-0.57259zm-40.347 0c-0.27839-0.33024-0.27048-0.3376 0.0845-0.07861 0.21542 0.15717 0.39167 0.32114 0.39167 0.36438 0 0.04324-0.0381 0.07861-0.0845 0.07861s-0.22273-0.16397-0.39167-0.36438zm-14.028-0.36438c4e-3 -0.34355 0.0547-0.45889 0.11147-0.25631 0.0568 0.20259 0.053 0.48368-8e-3 0.62464-0.0613 0.14097-0.10774-0.02478-0.10317-0.36834zm9.0223 0.31471c-0.0784-0.11803 0.0114-0.15294 0.2106-0.08183 0.19104 0.0682 0.34734 0.16082 0.34734 0.20583 0 0.04501-0.0948 0.08183-0.2106 0.08183-0.11583 0-0.27213-0.09262-0.34734-0.20583zm35.49 0.0667c-0.01-0.13378 0.0432-0.39091 0.11769-0.5714 0.0744-0.18049 0.22552-0.27632 0.33572-0.21296 0.11019 0.06336 0.19881 0.32049 0.19693 0.5714-3e-3 0.33693-0.054 0.38199-0.19672 0.17237-0.16319-0.23963-0.21218-0.23963-0.31462 0-0.0727 0.17004-0.12841 0.18632-0.139 0.04059zm-18.231-0.38946c-0.0767-0.18608-0.13649-0.40094-0.13275-0.47746 3e-3 -0.07652 0.11369 0.03186 0.24433 0.24086 0.13063 0.209 0.19037 0.42386 0.13275 0.47746-0.0576 0.05361-0.16757-0.05478-0.24433-0.24086zm-12.03-0.25222c-0.2784-0.33024-0.27048-0.3376 0.0845-0.07861 0.21543 0.15717 0.39168 0.32114 0.39168 0.36438 0 0.04324-0.0381 0.07861-0.0845 0.07861s-0.22272-0.16397-0.39166-0.36438zm8.5333-0.57259c-0.38111-0.51533-0.64257-0.93697-0.58103-0.93697 0.0616 0 0.42373 0.42164 0.80485 0.93697 0.38111 0.51533 0.64258 0.93697 0.58103 0.93697-0.0616 0-0.42373-0.42164-0.80485-0.93697zm29.192 0.75147c0.0836-0.12578 0.34774-0.32619 0.58708-0.44535s0.43515-0.17729 0.43515-0.12917c0 0.04812-0.26418 0.24853-0.58707 0.44535-0.3229 0.19683-0.51872 0.25496-0.43516 0.12917zm1.6937-0.43915c-0.20172-0.12128-0.22933-0.20311-0.0692-0.20503 0.1466-0.0018 0.3288 0.09051 0.40488 0.20503 0.0761 0.11452 0.1072 0.20678 0.0692 0.20503-0.0381-0.0018-0.22024-0.09401-0.40488-0.20503zm-15.667-0.31886c0-0.16818 0.0948-0.30579 0.2106-0.30579 0.11583 0 0.26633 0.08388 0.33443 0.1864 0.0681 0.10252-0.0267 0.24012-0.21059 0.30579-0.20315 0.07252-0.33444-6.52e-4 -0.33444-0.1864zm-32.005-0.09757c-0.18466-0.11101-0.23501-0.20184-0.11192-0.20184 0.1231 0 0.37489 0.09083 0.55953 0.20184 0.18464 0.11101 0.235 0.20184 0.1119 0.20184-0.12309 0-0.37487-0.09083-0.55951-0.20184zm7.6955-0.09195c-0.0681-0.16509-0.0843-0.4696-0.0361-0.6767 0.0547-0.23512 0.13134-0.12239 0.20398 0.30016 0.064 0.37218 0.0803 0.6767 0.0361 0.6767-0.0441 0-0.13589-0.13507-0.20398-0.30016zm-1.6053-1.1053c-0.47553-0.65848-0.93845-1.3144-1.0287-1.4575-0.0902-0.14315-0.12256-0.26027-0.0718-0.26027 0.0507 0 0.56106 0.65588 1.134 1.4575 0.57297 0.80163 0.99436 1.4575 0.93642 1.4575-0.058 0-0.49443-0.53876-0.96996-1.1972zm7.5799 0.86756c0.0107-0.24256 0.0638-0.2919 0.13522-0.1258 0.0646 0.1503 0.0567 0.32989-0.0177 0.39908-0.0744 0.06919-0.12727-0.05379-0.11755-0.27328zm-18.877-0.11259c0.15183-0.1423 0.33242-0.20627 0.40133-0.14216 0.0689 0.06411-0.0553 0.18053-0.27603 0.25872-0.31898 0.113-0.34469 0.08908-0.1253-0.11656zm4.0463 0.09182c0.16156-0.06015 0.3546-0.05275 0.42897 0.01644 0.0744 0.06919-0.0579 0.1184-0.29376 0.10936-0.26072-0.01-0.31376-0.05933-0.13521-0.1258zm39.544-0.06598c0.076-0.11452 0.18273-0.20822 0.23702-0.20822 0.0543 0 0.0987 0.0937 0.0987 0.20822 0 0.11452-0.10665 0.20822-0.23702 0.20822-0.13036 0-0.17477-0.0937-0.0987-0.20822zm-42.356-0.35174c0.21542-0.05237 0.56792-0.05237 0.78334 0 0.21541 0.05237 0.0392 0.09522-0.39167 0.09522-0.43083 0-0.60708-0.04285-0.39167-0.09522zm23.347-0.21187c-0.12145-0.29675-0.0958-0.32066 0.12529-0.11656 0.15296 0.14124 0.22172 0.30925 0.15281 0.37336-0.0689 0.06411-0.19405-0.05145-0.2781-0.2568zm15.82 0.21187c0.21542-0.05237 0.56792-0.05237 0.78334 0s0.0392 0.09522-0.39167 0.09522c-0.43083 0-0.60708-0.04285-0.39167-0.09522zm-14.621-0.63728-0.54259-0.57259 0.61548 0.50478c0.33851 0.27763 0.61548 0.53529 0.61548 0.57259 0 0.0373-0.0328 0.06781-0.0729 0.06781s-0.31706-0.25767-0.61547-0.57259zm12.648-0.10411-0.65734-0.6767 0.72738 0.61155c0.40006 0.33635 0.72738 0.64086 0.72738 0.6767 0 0.03583-0.0316 0.06515-0.07 0.06515-0.0385 0-0.36584-0.30451-0.72738-0.6767zm5.309 0.05205c0-0.2863 0.0508-0.40342 0.11289-0.26027 0.0621 0.14315 0.0621 0.37739 0 0.52054-0.0621 0.14315-0.11289 0.02603-0.11289-0.26027zm-24.615-0.78081c-0.0215-0.60122 0.0493-1.0931 0.1573-1.0931 0.10802 0 0.3237 0.14269 0.47928 0.31709 0.2354 0.26388 0.22353 0.2959-0.0707 0.19086-0.28189-0.10064-0.37114 0.05671-0.44017 0.77604-0.0848 0.88411-0.0874 0.88027-0.12568-0.19086zm1.1706 0.10411-0.42636-0.46848 0.50358 0.39665c0.27696 0.21816 0.50357 0.42897 0.50357 0.46848s-0.0348 0.07184-0.0772 0.07184c-0.0425 0-0.26907-0.21082-0.50357-0.46848zm4.5808-0.31232c-0.27839-0.33024-0.27047-0.3376 0.0845-0.07861 0.21542 0.15717 0.39166 0.32114 0.39166 0.36438 0 0.04324-0.0381 0.07861-0.0845 0.07861s-0.22273-0.16397-0.39167-0.36438zm5.6415 0.0347c0.0107-0.24256 0.0638-0.2919 0.13522-0.1258 0.0646 0.1503 0.0567 0.32989-0.0177 0.39908-0.0744 0.06919-0.12727-0.05379-0.11755-0.27328zm-6.7143-0.22589c-0.01-0.13378-0.0756-0.41487-0.14648-0.62464-0.12243-0.36255-0.11611-0.363 0.12775-0.0092 0.1411 0.20472 0.20702 0.48581 0.14647 0.62464-0.0794 0.18219-0.11499 0.18474-0.12774 0.0092zm8.4028-0.18124c-0.0767-0.18608-0.13649-0.40094-0.13274-0.47746 3e-3 -0.07652 0.11369 0.03187 0.24433 0.24086 0.13063 0.209 0.19036 0.42386 0.13274 0.47746-0.0576 0.05361-0.16757-0.05478-0.24433-0.24086zm-17.821 0.03354c0-0.04324 0.17625-0.20721 0.39167-0.36438 0.35498-0.25899 0.36289-0.25163 0.0845 0.07861-0.16895 0.20041-0.3452 0.36438-0.39167 0.36438-0.0464 0-0.0845-0.03538-0.0845-0.07861zm10.071-0.26086c0-0.11036 0.42804-0.57104 0.95119-1.0237l0.95119-0.82306-0.89523 0.93377c-0.49239 0.51357-0.92042 0.97425-0.9512 1.0237-0.0308 0.04947-0.0559-3.44e-4 -0.0559-0.11071zm-14.894-0.72095c-0.19689-0.3542-0.31824-0.68096-0.26968-0.72614 0.0486-0.04518 0.2558 0.24462 0.4605 0.64399 0.20472 0.39938 0.32607 0.72614 0.26967 0.72614s-0.26362-0.2898-0.46049-0.64399zm21.182 0.12346c-8e-3 -0.22904 0.0737-0.54556 0.18113-0.70337 0.10744-0.15782 0.30679-0.22287 0.44298-0.14456 0.1362 0.07831 0.35565 0.34798 0.48767 0.59927 0.20581 0.39175 0.17606 0.38287-0.20872-0.06229-0.34981-0.4047-0.47259-0.45061-0.55681-0.20822-0.0595 0.17103-0.15845 0.45151-0.22003 0.62329-0.0768 0.21431-0.11644 0.18164-0.12622-0.10411zm-14.55-0.15838c0.0513-0.02985 0.34504-0.24067 0.65278-0.46848l0.55952-0.41421-0.42635 0.46848c-0.2345 0.25767-0.52825 0.46848-0.65278 0.46848s-0.18447-0.02442-0.13317-0.05427zm7.1609-0.48362c0.0108-0.24256 0.0638-0.2919 0.13523-0.1258 0.0646 0.1503 0.0567 0.32989-0.0177 0.39908-0.0743 0.06919-0.12727-0.05379-0.11755-0.27328zm14.771-0.20822c0.0107-0.24256 0.0638-0.2919 0.13522-0.1258 0.0646 0.1503 0.0567 0.32989-0.0177 0.39908-0.0744 0.06919-0.12728-0.05379-0.11756-0.27328zm4.3743-0.61534c-0.0767-0.18608-0.13648-0.40094-0.13274-0.47746 3e-3 -0.07652 0.11369 0.03186 0.24433 0.24086 0.13063 0.209 0.19037 0.42385 0.13274 0.47746-0.0576 0.05361-0.16757-0.05478-0.24433-0.24086zm-26.114-0.87686-0.77129-0.7808 0.83929 0.71754c0.46161 0.39465 0.83928 0.74601 0.83928 0.78081 0 0.03479-0.0306 0.06326-0.068 0.06326s-0.41508-0.35136-0.83929-0.78081zm10.51 0.50794c0.10014-0.09282 0.67452-0.13817 1.2764-0.10078l1.0943 0.06797-1.2764 0.10078c-0.70201 0.05543-1.1945 0.02484-1.0943-0.06797zm-3.9902-0.47324c0.0107-0.24256 0.0638-0.2919 0.13522-0.1258 0.0646 0.15031 0.0567 0.32989-0.0177 0.39908-0.0744 0.06919-0.12727-0.05379-0.11755-0.27328zm7.0075-0.43983c0.0151-0.40294 0.10581-0.5904 0.23014-0.47528 0.12453 0.11531 0.11476 0.37714-0.0248 0.66539-0.21426 0.44248-0.22843 0.42936-0.20531-0.19012zm11.655-0.32363c-0.34502-0.4867-0.4843-0.775-0.3095-0.64065 0.1748 0.13434 0.49977 0.53255 0.72214 0.88491 0.22237 0.35236 0.36165 0.64065 0.3095 0.64065-0.0521 0-0.37711-0.39821-0.72214-0.88491zm-32.968 0.26027c0-0.2863 0.0508-0.40342 0.11288-0.26027 0.0621 0.14315 0.0621 0.37739 0 0.52054-0.0621 0.14315-0.11288 0.02603-0.11288-0.26027zm14.082-0.53789c0.0108-0.24256 0.0638-0.2919 0.13523-0.1258 0.0646 0.1503 0.0567 0.32989-0.0177 0.39908-0.0744 0.06919-0.12727-0.05379-0.11755-0.27328zm16.635-0.24292c0.26021-0.28592 0.65269-0.45743 1.0072-0.44013l0.58079 0.02835-0.55952 0.09474c-0.30775 0.0521-0.76096 0.25016-1.0072 0.44013-0.44401 0.34261-0.44418 0.34161-0.0212-0.12309zm-16.833-1.1972c4e-3 -0.34355 0.0547-0.45889 0.11147-0.2563 0.0568 0.20259 0.053 0.48368-8e-3 0.62464-0.0613 0.14097-0.10773-0.02478-0.10317-0.36834zm-13.532-0.12994c0.15182-0.1423 0.33242-0.20627 0.40132-0.14216 0.0689 0.0641-0.0553 0.18053-0.27603 0.25872-0.31897 0.113-0.34469 0.08908-0.12529-0.11656zm0.91296-0.32461c0.16156-0.06015 0.3546-0.05275 0.42896 0.01644 0.0744 0.06919-0.0579 0.1184-0.29374 0.10936-0.26073-0.01-0.31376-0.05933-0.13522-0.1258zm1.3429 0c0.16156-0.06015 0.3546-0.05275 0.42897 0.01644 0.0744 0.06919-0.0579 0.1184-0.29375 0.10936-0.26073-0.01-0.31376-0.05933-0.13522-0.1258zm16.575-1.055c-0.27839-0.33024-0.27048-0.3376 0.0845-0.07862 0.21542 0.15717 0.39167 0.32114 0.39167 0.36438 0 0.04324-0.0381 0.07862-0.0845 0.07862s-0.22273-0.16397-0.39167-0.36438zm-1.1074-1.2493-0.54258-0.57259 0.61547 0.50478c0.33851 0.27763 0.61548 0.53529 0.61548 0.57259 0 0.03729-0.0328 0.06781-0.0729 0.06781s-0.31705-0.25766-0.61548-0.57259zm-4.2178-0.17351c0.0107-0.24256 0.0638-0.2919 0.13521-0.1258 0.0646 0.1503 0.0567 0.32989-0.0177 0.39908-0.0744 0.06919-0.12726-0.05379-0.11754-0.27328zm2.668-0.73659c-0.43083-0.21482-0.61824-0.39074-0.41646-0.39091s0.60464 0.18395 0.89523 0.40918c0.29061 0.22523 0.47801 0.40114 0.41646 0.39091-0.0616-0.01022-0.4644-0.19435-0.89523-0.40918z" fill="#001f49"/><path d="m-129.76 116.03c-0.16645-2.6539-0.36446-4.1758-0.63662-4.893-0.21726-0.57259-0.68919-1.4389-1.0487-1.9251-0.35953-0.48619-1.0268-1.2253-1.4829-1.6424-0.45608-0.41716-1.3832-1.0032-2.0602-1.3023-1.129-0.49876-1.4627-0.54291-4.0286-0.53294-2.3562 9e-3 -3.1501 0.10259-5.0311 0.59212-1.2284 0.31968-3.3938 1.009-4.8119 1.5319-1.4182 0.52287-3.8878 1.5774-5.488 2.3433s-3.7675 1.8988-4.8161 2.5174c-1.0486 0.61862-2.7104 1.6614-3.6929 2.3172-0.98246 0.65583-2.2647 1.5234-2.8494 1.928-0.58471 0.40458-1.0631 0.66192-1.0631 0.57186 0-0.0901 0.67404-0.95766 1.4979-1.928 0.82383-0.97035 2.734-2.9043 4.2448-4.2977 1.5108-1.3934 3.7976-3.2673 5.0819-4.1643 1.2842-0.89697 3.1257-2.064 4.0922-2.5935 0.96643-0.52943 2.2104-1.1913 2.7643-1.4707 0.55394-0.27947 2.0646-0.89631 3.3572-1.3708 1.2925-0.47444 3.0046-1.0419 3.8048-1.261 0.80011-0.21911 2.059-0.51945 2.7976-0.66742 0.9874-0.19782 5.0616-0.29229 15.391-0.3569l14.048-0.08787-0.0604 4.5186-0.0604 4.5186-3.4691 0.0493c-1.908 0.0271-3.8719 0.11559-4.3643 0.19659s-1.0967 0.22261-1.3429 0.3147c-0.24619 0.0921-0.72459 0.27368-1.0631 0.40352s-0.89244 0.35033-1.231 0.48998c-0.33852 0.13965-1.0687 0.53351-1.6226 0.87526s-1.5174 1.0942-2.141 1.6721-1.3741 1.3787-1.6678 1.7795c-0.29367 0.40082-0.59392 0.7756-0.6672 0.83286-0.0733 0.0573-0.39462 0.61944-0.7141 1.2493s-0.73693 1.4731-0.92766 1.8739c-0.19074 0.40081-0.38082 0.96299-0.42241 1.2493-0.0416 0.28629-0.18433-1.2129-0.31719-3.3314zm-19.519-17.943c-1.0278-0.10899-2.1228-0.28804-2.4334-0.39789l-0.56464-0.19972 0.58694-0.50605c0.32281-0.27833 0.58693-0.638 0.58693-0.79926 0-0.16126-0.25178-0.63838-0.55953-1.0603-0.30773-0.42188-0.55951-0.82178-0.55951-0.88867 0-0.06688 0.83089-0.0621 1.8464 0.01065 1.0155 0.07275 2.8536 0.18914 4.0845 0.25866 1.411 0.07969 2.1554 0.05357 2.0143-0.07069-0.1231-0.1084-1.5834-0.50598-3.2452-0.88352-1.6618-0.37754-4.23-1.0609-5.7072-1.5185-1.4772-0.45763-2.9627-0.96323-3.3012-1.1236-0.33852-0.16032-0.61548-0.37086-0.61548-0.46787 0-0.09701 0.52235-0.22307 1.1608-0.28014 0.84421-0.07547 1.2715-0.23094 1.5667-0.5701 0.22324-0.25648 0.40589-0.65854 0.40589-0.89346s-0.25808-0.83682-0.57351-1.3376l-0.57352-0.91044 0.62947 0.13418c0.34621 0.0738 1.0323 0.25562 1.5247 0.40404 0.49239 0.14843 1.9528 0.66254 3.2452 1.1425 1.2925 0.47994 3.1054 1.134 4.0286 1.4536 0.92322 0.31952 1.8548 0.64842 2.0702 0.73089 0.21542 0.08246 0.39042 0.06964 0.38889-0.0285-2e-3 -0.09814-0.36958-0.3996-0.81789-0.66992-0.44833-0.27031-2.688-1.382-4.977-2.4705-2.289-1.0885-5.4208-2.5919-6.9595-3.3411-1.5387-0.74912-3.6338-1.8773-4.6557-2.507-1.022-0.62975-2.2557-1.5652-2.7417-2.0788-0.65173-0.68882-0.88357-1.1161-0.88357-1.6285 0-0.51132 0.14776-0.78471 0.55994-1.036 0.45687-0.27849 0.96156-0.32195 2.7417-0.23608 1.2 0.05788 2.5389 0.20845 2.9754 0.33459 0.43652 0.12615 0.97349 0.35168 1.1933 0.50118 0.37455 0.25479 0.3347 0.39224-0.63582 2.193-0.56947 1.0567-0.97371 2.014-0.89831 2.1275 0.0754 0.1135 0.52911 0.39242 1.0082 0.61982 0.47912 0.2274 1.3108 0.41346 1.8482 0.41346 0.73191 0 1.0991-0.1209 1.4637-0.4819 0.34145-0.33813 0.48664-0.74491 0.48664-1.3635 0-0.48485-0.20074-1.2681-0.44609-1.7405-0.24534-0.47242-0.3916-0.90962-0.32502-0.97156 0.0666-0.06194 0.79562 0.21199 1.6201 0.60873s2.1541 1.0874 2.9548 1.5347c0.80067 0.44736 2.8154 1.6579 4.4772 2.6901 1.6618 1.0322 3.558 2.2439 4.2138 2.6927 0.65581 0.44884 1.2406 0.77127 1.2994 0.71651 0.0589-0.05476-0.52808-0.70194-1.3043-1.4382-0.77623-0.73624-2.5695-2.3083-3.9851-3.4934-1.4156-1.1851-4.286-3.4271-6.3786-4.9822-2.0926-1.5551-4.6277-3.5597-5.6335-4.4547s-2.1923-2.1184-2.6367-2.7187c-0.44441-0.6003-0.86754-1.4327-0.94029-1.8498-0.0727-0.41708-0.0721-0.98159 2e-3 -1.2545 0.0736-0.27288 0.39279-0.6059 0.70927-0.74006 0.31648-0.13415 1.0592-0.24391 1.6505-0.24391s1.3671 0.08277 1.724 0.18392c0.35688 0.10116 1.1021 0.30399 1.656 0.45073 0.55393 0.14674 1.5862 0.54552 2.294 0.88616s1.2869 0.69356 1.2869 0.78426c0 0.0907-0.59977 0.65022-1.3328 1.2434-1.1017 0.89142-1.4395 1.3314-1.9478 2.5368-0.59364 1.4077-0.60056 1.4682-0.19889 1.7414 0.22887 0.15569 0.94465 0.42601 1.5906 0.60072 0.64597 0.1747 1.3707 0.31764 1.6105 0.31764 0.23982 0 0.7692-0.21082 1.1764-0.46848 0.44942-0.28438 0.86417-0.79578 1.0554-1.3013 0.17327-0.45807 0.26565-1.1608 0.20529-1.5616-0.0603-0.40081-0.18047-1.0333-0.26694-1.4054-0.11113-0.47839-0.0759-0.6767 0.12044-0.6767 0.1527 0 0.96946 0.42787 1.815 0.95083s2.4715 1.8113 3.6132 2.863c1.1417 1.0517 3.2216 3.2502 4.622 4.8856s2.5866 2.9359 2.636 2.8899c0.0494-0.04595-0.23306-0.63443-0.62769-1.3077-0.39461-0.6733-1.4212-2.208-2.2814-3.4104-0.86013-1.2024-1.9747-2.6547-2.4768-3.2273-0.50211-0.57259-1.81-1.978-2.9065-3.1232-1.0965-1.1452-2.699-3.0599-3.5612-4.255s-1.841-2.7411-2.1752-3.4355c-0.3342-0.69449-0.67202-1.6546-0.7507-2.1335-0.0787-0.47895-0.0467-1.1067 0.0711-1.395 0.14898-0.36455 0.47948-0.5906 1.0854-0.74238 0.66304-0.1661 1.1229-0.14776 1.9247 0.07674 0.57946 0.16224 1.6781 0.67356 2.4415 1.1363s1.7784 1.2133 2.2556 1.6679c0.55373 0.52755 0.81901 0.9445 0.73324 1.1524-0.0739 0.1792-0.4651 0.50552-0.86929 0.72514-0.4042 0.21963-1.1223 0.61838-1.5959 0.8861-0.47354 0.26773-1.103 0.8698-1.3988 1.3379-0.29581 0.46813-0.53783 1.0538-0.53783 1.3016 0 0.25209 0.39481 0.80688 0.89662 1.2599 0.49315 0.44524 1.2386 0.96046 1.6564 1.145s1.0068 0.33543 1.3088 0.33543c0.30193 0 0.80998-0.22504 1.129-0.50009 0.31901-0.27505 0.73453-0.84411 0.92337-1.2646 0.18885-0.42048 0.40967-1.3666 0.49072-2.1026 0.081-0.73595 0.21347-1.3381 0.29428-1.3381 0.0808 0 0.50765 0.44506 0.94857 0.98902 0.44091 0.54396 1.5012 1.9728 2.3563 3.1753 0.85504 1.2024 1.9259 2.762 2.3796 3.4658s1.3732 2.3434 2.0431 3.6438c0.66998 1.3003 1.6167 3.4886 2.1038 4.8628 0.48711 1.3742 1.0082 3.0139 1.1581 3.6438s0.32927 1.2857 0.39876 1.4575c0.0782 0.19337 0.16149 0.07442 0.21866-0.31232 0.0507-0.34356-0.0249-1.2805-0.1681-2.0821-0.14322-0.80163-0.50715-2.5126-0.80872-3.8021-0.30157-1.2895-0.8051-3.0698-1.119-3.9561-0.31388-0.88633-0.76603-2.0087-1.0048-2.4942-0.23877-0.48545-0.43411-0.91883-0.43411-0.96306 0-0.04423-0.54118-1.1462-1.2026-2.4488s-1.4309-2.8369-1.71-3.4095-0.60148-1.3222-0.71653-1.6657c-0.11504-0.34355-0.40165-1.3274-0.63691-2.1863s-0.54026-2.3411-0.67776-3.2938c-0.13751-0.95272-0.18282-2.1491-0.10068-2.6587 0.10688-0.66304 0.30723-1.0227 0.70466-1.265 0.45984-0.2803 0.69962-0.29828 1.3946-0.10458 0.46159 0.12866 1.26 0.56896 1.7742 0.97844s1.542 1.5888 2.2839 2.6207c0.74196 1.0319 1.349 2.004 1.349 2.16 0 0.15609-0.15826 0.43104-0.3517 0.611-0.22677 0.21097-0.76341 0.32955-1.5107 0.33382-0.63746 0.0036-1.3101 0.12523-1.4947 0.2702s-0.78046 0.70013-1.324 1.2337l-0.98832 0.97011 0.63883 0.85758c0.35135 0.47167 0.88328 1.0365 1.1821 1.2551s0.89775 0.48861 1.331 0.59991c0.57882 0.14868 0.98288 0.12651 1.5234-0.08358 0.40459-0.15727 0.90604-0.52794 1.1144-0.82371 0.20831-0.29578 0.49312-1.0587 0.63288-1.6954 0.13978-0.63668 0.35454-1.1635 0.47727-1.1708 0.12272-0.0072 0.49529 0.49018 0.82794 1.1054 0.33265 0.61521 0.86329 1.915 1.1792 2.8884 0.31591 0.9734 0.66674 2.0509 0.77962 2.3945 0.11287 0.34355 0.40608 1.5616 0.65155 2.7068 0.24548 1.1452 0.56604 3.0191 0.71235 4.1643 0.15951 1.2483 0.23328 3.9205 0.18422 6.6727-0.062 3.4789-0.0211 4.4816 0.16892 4.1405 0.13791-0.24753 0.46143-1.47 0.71893-2.7166 0.2575-1.2466 0.58294-3.7657 0.7232-5.598 0.14025-1.8323 0.21959-5.103 0.17631-7.2682-0.0552-2.7645-4e-3 -3.9604 0.17041-4.016 0.13702-0.04356 0.3819 0.22885 0.54418 0.60535 0.16229 0.3765 0.62495 1.172 1.0282 1.7677 0.40319 0.59573 1.0453 1.2333 1.4269 1.4169 0.64415 0.30989 0.75301 0.30688 1.5204-0.04206 0.50196-0.22826 0.97704-0.66204 1.2098-1.1046 0.21077-0.40081 0.44526-1.0085 0.52108-1.3505 0.10317-0.4653 0.1835-0.54387 0.31928-0.31232 0.0998 0.17016 0.24995 0.87156 0.33368 1.5587 0.0837 0.68711 0.0368 2.28-0.10432 3.5397s-0.39565 3.0399-0.56565 3.9561-0.52262 2.4153-0.78358 3.3314c-0.26097 0.91615-0.83163 2.5558-1.2681 3.6438-0.4365 1.0879-0.97165 2.3528-1.1892 2.8109-0.21757 0.45807-0.45704 1.0203-0.53215 1.2493-0.11633 0.35476-0.0678 0.34082 0.32803-0.09412 0.25553-0.2808 0.848-1.1241 1.3166-1.8739s1.3008-2.2067 1.8493-3.2373 1.6081-3.3262 2.3546-5.1013 1.4144-3.3913 1.4843-3.5917c0.0698-0.20041 0.21939-0.36438 0.33237-0.36438 0.11299 0 0.2701 0.40126 0.34915 0.8917 0.0791 0.49043 0.33747 1.1881 0.57425 1.5503 0.2368 0.36223 0.68303 0.81252 0.99164 1.0006 0.37699 0.2298 0.77944 0.29743 1.2265 0.20609 0.37723-0.07708 1.0684-0.5427 1.596-1.0753 0.5119-0.51664 0.96369-0.90868 1.004-0.87119 0.0403 0.03749-0.0702 0.58336-0.2456 1.2131-0.17537 0.6297-0.43159 1.4728-0.56937 1.8737-0.13779 0.40081-0.44807 1.1504-0.68954 1.6657-0.24145 0.51533-0.79731 1.5928-1.2352 2.3945s-1.2029 2.0197-1.7 2.7068c-0.49709 0.68711-1.4321 1.8684-2.0778 2.625-0.64569 0.75666-1.3138 1.5062-1.4846 1.6657-0.17084 0.15948-0.5036 0.57106-0.73947 0.91462-0.28683 0.41778-0.31895 0.54883-0.097 0.39573 0.18252-0.12591 1.0368-0.73262 1.8985-1.3482 0.86167-0.61563 1.7562-1.309 1.9879-1.5409s1.0866-1.1646 1.8998-2.0727l1.4786-1.6511 0.18462 1.0265c0.10154 0.56456 0.39722 1.2373 0.65705 1.495 0.25984 0.25767 0.68871 0.46848 0.95306 0.46848 0.26436 0 0.87627-0.27848 1.3598-0.61885 0.48353-0.34037 0.96426-0.62146 1.0683-0.62464 0.10401-0.0031-0.0906 0.43927-0.43245 0.98323-0.34186 0.54396-0.90912 1.3638-1.2606 1.8219-0.35147 0.45807-1.2114 1.3762-1.911 2.0403-0.69959 0.66412-1.805 1.5366-2.4564 1.9389s-1.902 1.0067-2.779 1.3431c-0.87701 0.33645-1.9833 0.61172-2.4584 0.61172-0.67783 0-1.1652-0.20831-2.2633-0.96746-0.7697-0.5321-2.1112-1.2766-2.9812-1.6544-0.86996-0.37784-2.3283-0.87946-3.2408-1.1147-1.17-0.30163-2.3201-0.42698-3.9016-0.42523-1.2413 0.0013-2.7877 0.13742-3.4634 0.30472-0.67143 0.16624-1.88 0.60276-2.6857 0.97004-0.93744 0.42735-1.9938 1.1611-2.9339 2.0377-0.96662 0.90143-1.732 1.8676-2.2381 2.8252-0.52811 0.99929-0.96632 1.5431-1.3984 1.7353-0.34612 0.15397-1.2526 0.35681-2.0143 0.45075-0.76174 0.09394-2.1907 0.21621-3.1755 0.27171-0.98476 0.0555-2.6314 0.01174-3.6592-0.09725zm18.431-1.0279c-0.24619-0.13171-0.62163-0.43808-0.83431-0.68082s-0.38893-0.78009-0.39166-1.1941c-3e-3 -0.44862 0.17978-0.97124 0.45234-1.2936 0.25672-0.30363 0.78831-0.59864 1.2119-0.67257 0.45638-0.07965 1.0054-0.02091 1.3891 0.14866 0.34898 0.1542 0.80163 0.59158 1.0059 0.97197 0.27724 0.51632 0.32027 0.85737 0.16976 1.3456-0.11089 0.3597-0.38474 0.82436-0.60856 1.0326s-0.75343 0.4243-1.1769 0.48016c-0.42348 0.05587-0.97139-0.0062-1.2176-0.1379zm-24.814-0.49529c-0.69911-0.26434-1.4087-0.58688-1.5769-0.71674-0.1682-0.12986-0.3564-0.41609-0.41824-0.63605-0.0618-0.21996 0.0113-0.55742 0.16267-0.74992 0.19948-0.25379 0.63894-0.3566 1.599-0.37405 0.72813-0.01324 1.5001 0.04327 1.7155 0.12556 0.31084 0.11875 0.39167 0.40418 0.39167 1.3832 0 0.84172-0.0957 1.2677-0.30127 1.3411-0.16569 0.05916-0.87327-0.10873-1.5724-0.37307zm-3.5966-6.8335c-0.239-0.13641-0.96378-0.5522-1.6106-0.92398-0.64685-0.37178-1.4333-0.98965-1.7476-1.373-0.31435-0.3834-0.57153-0.85006-0.57153-1.037 0-0.18696 0.25514-0.49544 0.56697-0.68553 0.45835-0.27939 0.94336-0.32564 2.5315-0.2414 1.0805 0.05731 2.1969 0.21992 2.481 0.36133 0.4394 0.21878 0.49927 0.37619 0.40134 1.0554-0.0633 0.43905-0.3718 1.3199-0.68556 1.9575s-0.65158 1.1537-0.75071 1.147c-0.0991-0.0068-0.37578-0.12386-0.61478-0.26027zm54.157-5.7811c-0.57434-0.49252-1.1412-1.064-1.2597-1.27-0.15532-0.26998-0.0925-0.59864 0.22519-1.1779 0.24234-0.44191 0.79242-1.0909 1.2224-1.4421 0.42999-0.35124 1.0074-0.70521 1.283-0.78661 0.35881-0.10595 0.59111-0.03722 0.81756 0.2419 0.22054 0.27182 0.28307 0.73669 0.20648 1.5351-0.0604 0.62985-0.27997 1.6137-0.48789 2.1863s-0.50963 1.1688-0.67045 1.325c-0.2449 0.23778-0.46203 0.13844-1.3367-0.6116zm-2.5818-11.151c-0.43084-0.28989-1.3085-0.76317-1.9504-1.0517-0.64188-0.28856-1.2244-0.6928-1.2945-0.8983-0.0701-0.2055 0.1325-0.92226 0.45025-1.5928 0.31775-0.67054 0.83513-1.5661 1.1497-1.9901 0.3146-0.42401 0.80813-0.91486 1.0967-1.0908 0.28859-0.17592 0.68535-0.2625 0.88169-0.19241 0.19633 0.07009 0.57305 0.51409 0.83716 0.98667 0.40143 0.71832 0.48049 1.2178 0.48202 3.0455 8.5e-4 1.2024-0.0702 2.4439-0.15826 2.7588-0.0881 0.31492-0.28409 0.568-0.43561 0.56238-0.15152-0.0056-0.628-0.24739-1.0588-0.53728zm-10.183-7.7129c-0.61548-0.15807-1.4521-0.24311-1.8591-0.18897-0.61284 0.08151-0.89174-0.02907-1.6226-0.64337-0.50439-0.42393-0.88259-0.9328-0.88259-1.1875 0-0.24514 0.24492-1.2739 0.54427-2.2861 0.29934-1.0122 0.71781-2.0188 0.92993-2.2368 0.21211-0.21805 0.66736-0.39646 1.0116-0.39646 0.48643 0 0.76928 0.19728 1.2687 0.88491 0.3535 0.4867 0.85437 1.4002 1.1131 2.0301 0.25867 0.62985 0.56923 1.4731 0.69012 1.8739 0.12091 0.40081 0.27524 1.0251 0.34297 1.3873 0.0741 0.3961 0.0155 0.73663-0.14711 0.85449-0.17241 0.12501-0.67541 0.0919-1.3893-0.09145z" fill="#0fa3a6"/></g></g></svg>
